<svg width="2000" height="1019" viewBox="0 0 2000 1019" fill="none" xmlns="http://www.w3.org/2000/svg">
<g clip-path="url(#clip0_219_1745)">
<rect width="2000" height="1019" fill="#020202"/>
<path fill-rule="evenodd" clip-rule="evenodd" d="M1756.54 231.995C1735.05 231.995 1717.6 249.539 1717.6 271.178C1717.6 292.818 1735.05 310.274 1756.54 310.274C1778.02 310.274 1795.45 292.796 1795.45 271.178C1795.45 249.561 1778.04 231.995 1756.54 231.995Z" fill="#1A1A1A"/>
<path fill-rule="evenodd" clip-rule="evenodd" d="M1711.96 332.045C1691.52 332.045 1674.98 348.756 1674.98 369.301C1674.98 389.845 1691.52 406.513 1711.96 406.513C1732.39 406.513 1749.02 389.845 1749.02 369.301C1749.02 348.756 1732.42 332.045 1711.96 332.045Z" fill="#1A1A1A"/>
<path fill-rule="evenodd" clip-rule="evenodd" d="M1641.67 415.493C1622.3 415.493 1606.52 431.306 1606.52 450.821C1606.52 470.336 1622.3 486.172 1641.67 486.172C1661.04 486.172 1676.81 470.314 1676.81 450.821C1676.81 431.328 1661.08 415.493 1641.67 415.493Z" fill="#1A1A1A"/>
<path fill-rule="evenodd" clip-rule="evenodd" d="M1551.51 475.812C1533.14 475.812 1518.22 490.793 1518.22 509.257C1518.22 527.72 1533.14 542.658 1551.51 542.658C1569.88 542.658 1584.73 527.72 1584.73 509.257C1584.73 490.793 1569.85 475.812 1551.51 475.812Z" fill="#1A1A1A"/>
<path fill-rule="evenodd" clip-rule="evenodd" d="M1448.52 508.183C1431.17 508.183 1417.16 522.267 1417.16 539.657C1417.16 557.048 1431.17 571.196 1448.52 571.196C1465.86 571.196 1479.87 557.069 1479.87 539.657C1479.87 522.245 1465.86 508.183 1448.52 508.183V508.183Z" fill="#1A1A1A"/>
<path fill-rule="evenodd" clip-rule="evenodd" d="M1341.14 510.089C1324.91 510.089 1311.71 523.318 1311.71 539.723C1311.71 556.128 1324.91 569.313 1341.14 569.313C1357.38 569.313 1370.6 556.04 1370.6 539.723C1370.6 523.406 1357.44 510.089 1341.14 510.089Z" fill="#1A1A1A"/>
<path fill-rule="evenodd" clip-rule="evenodd" d="M1238.19 481.616C1222.96 481.616 1210.63 494.013 1210.63 509.322C1210.63 524.632 1222.94 537.051 1238.19 537.051C1253.45 537.051 1265.76 524.632 1265.76 509.322C1265.76 494.013 1253.45 481.616 1238.19 481.616Z" fill="#1A1A1A"/>
<path fill-rule="evenodd" clip-rule="evenodd" d="M1147.95 425.152C1133.79 425.152 1122.28 436.694 1122.28 450.997C1122.28 465.299 1133.79 476.776 1147.95 476.776C1162.11 476.776 1173.59 465.233 1173.59 450.997C1173.59 436.76 1162.11 425.152 1147.95 425.152Z" fill="#1A1A1A"/>
<path fill-rule="evenodd" clip-rule="evenodd" d="M1077.59 345.581C1064.48 345.581 1053.82 356.291 1053.82 369.476C1053.82 382.661 1064.45 393.371 1077.59 393.371C1090.73 393.371 1101.41 382.661 1101.41 369.476C1101.41 356.291 1090.77 345.581 1077.59 345.581Z" fill="#1A1A1A"/>
<path fill-rule="evenodd" clip-rule="evenodd" d="M1678.58 229.63C1663.5 229.63 1651.25 241.939 1651.25 257.095C1651.25 272.252 1663.5 284.605 1678.58 284.605C1693.65 284.605 1705.99 272.295 1705.99 257.095C1705.99 241.895 1693.74 229.63 1678.58 229.63Z" fill="#1A1A1A"/>
<path fill-rule="evenodd" clip-rule="evenodd" d="M1636.2 314.501C1621.77 314.501 1610.05 326.241 1610.05 340.74C1610.05 355.24 1621.77 366.979 1636.2 366.979C1650.62 366.979 1662.3 355.24 1662.3 340.74C1662.3 326.241 1650.62 314.501 1636.2 314.501Z" fill="#1A1A1A"/>
<path fill-rule="evenodd" clip-rule="evenodd" d="M1570.18 382.136C1556.43 382.136 1545.3 393.328 1545.3 407.148C1545.3 420.968 1556.43 432.161 1570.18 432.161C1583.93 432.161 1595.06 420.968 1595.06 407.148C1595.06 393.328 1583.95 382.136 1570.18 382.136Z" fill="#1A1A1A"/>
<path fill-rule="evenodd" clip-rule="evenodd" d="M1487.04 426.028C1473.94 426.028 1463.38 436.694 1463.38 449.836C1463.38 462.977 1473.94 473.622 1487.04 473.622C1500.13 473.622 1510.7 462.955 1510.7 449.836C1510.7 436.716 1500.09 426.028 1487.04 426.028V426.028Z" fill="#1A1A1A"/>
<path fill-rule="evenodd" clip-rule="evenodd" d="M1394.81 441.951C1382.41 441.951 1372.39 452.07 1372.39 464.532C1372.39 476.995 1382.41 487.07 1394.81 487.07C1407.21 487.07 1417.23 476.995 1417.23 464.532C1417.23 452.07 1407.21 441.951 1394.81 441.951Z" fill="#1A1A1A"/>
<path fill-rule="evenodd" clip-rule="evenodd" d="M1302.58 428.525C1290.88 428.525 1281.38 438.074 1281.38 449.879C1281.38 461.685 1290.88 471.234 1302.58 471.234C1314.28 471.234 1323.78 461.641 1323.78 449.879C1323.78 438.118 1314.28 428.525 1302.58 428.525Z" fill="#1A1A1A"/>
<path fill-rule="evenodd" clip-rule="evenodd" d="M1219.41 387.129C1208.34 387.129 1199.39 396.131 1199.39 407.258C1199.39 418.384 1208.34 427.342 1219.41 427.342C1230.48 427.342 1239.39 418.34 1239.39 407.258C1239.39 396.175 1230.48 387.129 1219.41 387.129Z" fill="#1A1A1A"/>
<path fill-rule="evenodd" clip-rule="evenodd" d="M1153.37 322.036C1142.96 322.036 1134.59 330.468 1134.59 340.893C1134.59 351.319 1142.98 359.751 1153.37 359.751C1163.77 359.751 1172.13 351.297 1172.13 340.893C1172.13 330.49 1163.72 322.036 1153.37 322.036Z" fill="#1A1A1A"/>
<path fill-rule="evenodd" clip-rule="evenodd" d="M1609.18 221.767C1597.29 221.767 1587.63 231.448 1587.63 243.384C1587.63 255.321 1597.29 265.002 1609.18 265.002C1621.08 265.002 1630.73 255.321 1630.73 243.384C1630.73 231.448 1621.08 221.767 1609.18 221.767Z" fill="#1A1A1A"/>
<path fill-rule="evenodd" clip-rule="evenodd" d="M1569.27 292.073C1557.87 292.073 1548.68 301.338 1548.68 312.815C1548.68 324.292 1557.87 333.556 1569.27 333.556C1580.66 333.556 1589.9 324.292 1589.9 312.815C1589.9 301.338 1580.66 292.073 1569.27 292.073Z" fill="#1A1A1A"/>
<path fill-rule="evenodd" clip-rule="evenodd" d="M1508.17 344.551C1497.3 344.551 1488.5 353.444 1488.5 364.373C1488.5 375.302 1497.3 384.216 1508.17 384.216C1519.04 384.216 1527.91 375.28 1527.91 364.373C1527.91 353.466 1519.07 344.551 1508.17 344.551Z" fill="#1A1A1A"/>
<path fill-rule="evenodd" clip-rule="evenodd" d="M1433.31 372.893C1422.89 372.893 1414.48 381.369 1414.48 391.773C1414.48 402.176 1422.89 410.674 1433.31 410.674C1443.72 410.674 1452.07 402.198 1452.07 391.773C1452.07 381.347 1443.63 372.893 1433.31 372.893Z" fill="#1A1A1A"/>
<path fill-rule="evenodd" clip-rule="evenodd" d="M1353.56 373.835C1343.65 373.835 1335.65 381.917 1335.65 391.838C1335.65 401.76 1343.65 409.842 1353.56 409.842C1363.48 409.842 1371.43 401.76 1371.43 391.838C1371.43 381.917 1363.43 373.835 1353.56 373.835Z" fill="#1A1A1A"/>
<path fill-rule="evenodd" clip-rule="evenodd" d="M1278.61 347.355C1269.2 347.355 1261.62 354.977 1261.62 364.439C1261.62 373.9 1269.2 381.522 1278.61 381.522C1288.02 381.522 1295.61 373.9 1295.61 364.439C1295.61 354.977 1287.98 347.355 1278.61 347.355Z" fill="#1A1A1A"/>
<path fill-rule="evenodd" clip-rule="evenodd" d="M1217.54 296.717C1208.61 296.717 1201.39 303.988 1201.39 312.902C1201.39 321.817 1208.63 329.088 1217.54 329.088C1226.45 329.088 1233.62 321.817 1233.62 312.902C1233.62 303.988 1226.43 296.717 1217.54 296.717Z" fill="#1A1A1A"/>
<path fill-rule="evenodd" clip-rule="evenodd" d="M1543.42 210.465C1534.73 210.465 1527.61 217.627 1527.61 226.388C1527.61 235.149 1534.73 242.289 1543.42 242.289C1552.12 242.289 1559.24 235.171 1559.24 226.388C1559.24 217.605 1552.21 210.465 1543.42 210.465V210.465Z" fill="#1A1A1A"/>
<path fill-rule="evenodd" clip-rule="evenodd" d="M1508.56 263.469C1500.11 263.469 1493.25 270.39 1493.25 278.866C1493.25 287.342 1500.09 294.263 1508.56 294.263C1517.04 294.263 1523.88 287.342 1523.88 278.866C1523.88 270.39 1517.04 263.469 1508.56 263.469Z" fill="#1A1A1A"/>
<path fill-rule="evenodd" clip-rule="evenodd" d="M1456.36 299.104C1448.17 299.104 1441.59 305.806 1441.59 313.954C1441.59 322.101 1448.17 328.847 1456.36 328.847C1464.55 328.847 1471.13 322.189 1471.13 313.954C1471.13 305.718 1464.55 299.104 1456.36 299.104Z" fill="#1A1A1A"/>
<path fill-rule="evenodd" clip-rule="evenodd" d="M1394.79 311.961C1386.9 311.961 1380.52 318.334 1380.52 326.263C1380.52 334.191 1386.9 340.653 1394.79 340.653C1402.67 340.653 1409.06 334.191 1409.06 326.263C1409.06 318.334 1402.67 311.961 1394.79 311.961V311.961Z" fill="#1A1A1A"/>
<path fill-rule="evenodd" clip-rule="evenodd" d="M1333.19 300.177C1325.56 300.177 1319.4 306.332 1319.4 314.019C1319.4 321.707 1325.56 327.862 1333.19 327.862C1340.82 327.862 1346.92 321.619 1346.92 314.019C1346.92 306.419 1340.75 300.177 1333.19 300.177V300.177Z" fill="#1A1A1A"/>
<path fill-rule="evenodd" clip-rule="evenodd" d="M1280.99 265.637C1273.64 265.637 1267.72 271.595 1267.72 278.954C1267.72 286.313 1273.64 292.27 1280.99 292.27C1288.33 292.27 1294.23 286.313 1294.23 278.954C1294.23 271.595 1288.31 265.637 1280.99 265.637Z" fill="#1A1A1A"/>
<path fill-rule="evenodd" clip-rule="evenodd" d="M1754.88 79.6864C1766.97 79.6864 1776.78 69.8084 1776.78 57.6746C1776.78 45.5407 1766.97 35.6189 1754.88 35.6189C1742.79 35.6189 1733 45.4969 1733 57.6746C1733 69.8522 1742.81 79.6864 1754.88 79.6864Z" fill="#1A1A1A"/>
<path fill-rule="evenodd" clip-rule="evenodd" d="M1770.2 184.599C1781.26 184.599 1790.22 175.597 1790.22 164.448C1790.22 153.3 1781.26 144.364 1770.2 144.364C1759.13 144.364 1750.22 153.366 1750.22 164.448C1750.22 175.531 1759.17 184.599 1770.2 184.599Z" fill="#1A1A1A"/>
<path fill-rule="evenodd" clip-rule="evenodd" d="M1151.65 14.5488C1166.08 14.5488 1177.8 2.8529 1177.8 -11.6902C1177.8 -26.2334 1166.08 -37.9292 1151.65 -37.9292C1137.23 -37.9292 1125.55 -26.1458 1125.55 -11.6902C1125.55 2.76529 1137.23 14.5488 1151.65 14.5488Z" fill="#1A1A1A"/>
<path fill-rule="evenodd" clip-rule="evenodd" d="M1634.48 7.05823C1644.89 7.05823 1653.26 -1.37416 1653.26 -11.8216C1653.26 -22.269 1644.87 -30.6794 1634.48 -30.6794C1624.08 -30.6794 1615.72 -22.2252 1615.72 -11.8216C1615.72 -1.41796 1624.15 7.05823 1634.48 7.05823Z" fill="#1A1A1A"/>
<path fill-rule="evenodd" clip-rule="evenodd" d="M1676.97 89.4109C1686.64 89.4109 1694.48 81.4823 1694.48 71.7577C1694.48 62.033 1686.64 54.1482 1676.97 54.1482C1667.29 54.1482 1659.43 62.033 1659.43 71.7577C1659.43 81.4823 1667.27 89.4109 1676.97 89.4109Z" fill="#1A1A1A"/>
<path fill-rule="evenodd" clip-rule="evenodd" d="M1691.58 180.919C1700.58 180.919 1707.9 173.538 1707.9 164.492C1707.9 155.446 1700.58 148.065 1691.58 148.065C1682.59 148.065 1675.29 155.446 1675.29 164.492C1675.29 173.538 1682.56 180.919 1691.58 180.919Z" fill="#1A1A1A"/>
<path fill-rule="evenodd" clip-rule="evenodd" d="M1218.61 37.0206C1230.02 37.0206 1239.24 27.7121 1239.24 16.2353C1239.24 4.75849 1230.02 -4.46235 1218.61 -4.46235C1207.19 -4.46235 1197.97 4.7804 1197.97 16.2353C1197.97 27.6902 1207.19 37.0206 1218.61 37.0206Z" fill="#1A1A1A"/>
<path fill-rule="evenodd" clip-rule="evenodd" d="M1570.38 32.3335C1579.31 32.3335 1586.48 25.1057 1586.48 16.1477C1586.48 7.18963 1579.29 -0.0162176 1570.38 -0.0162176C1561.47 -0.0162176 1554.28 7.21153 1554.28 16.1477C1554.28 25.0838 1561.51 32.3335 1570.38 32.3335V32.3335Z" fill="#1A1A1A"/>
<path fill-rule="evenodd" clip-rule="evenodd" d="M1610.36 100.822C1618.7 100.822 1625.52 93.9667 1625.52 85.5343C1625.52 77.1019 1618.7 70.2684 1610.36 70.2684C1602.01 70.2684 1595.13 77.1019 1595.13 85.5343C1595.13 93.9667 1601.95 100.822 1610.36 100.822Z" fill="#1A1A1A"/>
<path fill-rule="evenodd" clip-rule="evenodd" d="M1624.15 178.838C1632.04 178.838 1638.42 172.421 1638.42 164.492C1638.42 156.564 1632.04 150.146 1624.15 150.146C1616.26 150.146 1609.88 156.564 1609.88 164.492C1609.88 172.421 1616.26 178.838 1624.15 178.838Z" fill="#1A1A1A"/>
<path fill-rule="evenodd" clip-rule="evenodd" d="M1279.31 65.5593C1287.76 65.5593 1294.63 58.682 1294.63 50.162C1294.63 41.642 1287.78 34.7866 1279.31 34.7866C1270.83 34.7866 1263.99 41.7077 1263.99 50.162C1263.99 58.6163 1270.88 65.5593 1279.31 65.5593Z" fill="#1A1A1A"/>
<path fill-rule="evenodd" clip-rule="evenodd" d="M1331.51 29.9462C1339.71 29.9462 1346.29 23.2879 1346.29 15.0964C1346.29 6.90492 1339.71 0.202772 1331.51 0.202772C1323.32 0.202772 1316.74 6.86112 1316.74 15.0964C1316.74 23.3317 1323.32 29.9462 1331.51 29.9462V29.9462Z" fill="#1A1A1A"/>
<path fill-rule="evenodd" clip-rule="evenodd" d="M1393.13 17.1332C1400.97 17.1332 1407.38 10.7159 1407.38 2.78724C1407.38 -5.1414 1400.97 -11.6026 1393.13 -11.6026C1385.29 -11.6026 1378.81 -5.1414 1378.81 2.78724C1378.81 10.7159 1385.2 17.1332 1393.13 17.1332V17.1332Z" fill="#1A1A1A"/>
<path fill-rule="evenodd" clip-rule="evenodd" d="M1454.66 28.8511C1462.29 28.8511 1468.45 22.6965 1468.45 15.0088C1468.45 7.32107 1462.29 1.18842 1454.66 1.18842C1447.03 1.18842 1440.93 7.38678 1440.93 15.0088C1440.93 22.6308 1447.1 28.8511 1454.66 28.8511Z" fill="#1A1A1A"/>
<path fill-rule="evenodd" clip-rule="evenodd" d="M1506.93 63.4568C1514.23 63.4568 1520.18 57.4994 1520.18 50.0964C1520.18 42.6934 1514.23 36.7798 1506.93 36.7798C1499.63 36.7798 1493.64 42.7372 1493.64 50.0964C1493.64 57.4556 1499.61 63.4568 1506.93 63.4568Z" fill="#1A1A1A"/>
<path fill-rule="evenodd" clip-rule="evenodd" d="M1541.81 115.431C1548.85 115.431 1554.56 109.649 1554.56 102.574C1554.56 95.4999 1548.85 89.7615 1541.81 89.7615C1534.77 89.7615 1529.07 95.4999 1529.07 102.574C1529.07 109.649 1534.77 115.431 1541.81 115.431Z" fill="#1A1A1A"/>
<path fill-rule="evenodd" clip-rule="evenodd" d="M1554.08 176.823C1560.86 176.823 1566.32 171.282 1566.32 164.514C1566.32 157.746 1560.86 152.205 1554.08 152.205C1547.3 152.205 1541.83 157.703 1541.83 164.514C1541.83 171.326 1547.3 176.823 1554.08 176.823Z" fill="#1A1A1A"/>
</g>
<defs>
<clipPath id="clip0_219_1745">
<rect width="2000" height="1019" fill="white"/>
</clipPath>
</defs>
</svg>
