<svg width="24" height="24" viewBox="0 0 24 24" fill="none" xmlns="http://www.w3.org/2000/svg">
<path d="M11.9997 19.6391C7.78077 19.6391 4.36084 16.2192 4.36084 12.0002C4.36084 7.78126 7.78077 4.36133 11.9997 4.36133C16.2187 4.36133 19.6386 7.78126 19.6386 12.0002C19.6386 16.2192 16.2187 19.6391 11.9997 19.6391ZM8.18028 12.7641C8.18028 13.7771 8.58269 14.7486 9.29897 15.4649C10.0153 16.1811 10.9867 16.5836 11.9997 16.5836C13.0127 16.5836 13.9842 16.1811 14.7005 15.4649C15.4168 14.7486 15.8192 13.7771 15.8192 12.7641H14.2914C14.2914 13.3719 14.05 13.9548 13.6202 14.3846C13.1904 14.8143 12.6075 15.0558 11.9997 15.0558C11.3919 15.0558 10.809 14.8143 10.3793 14.3846C9.94951 13.9548 9.70806 13.3719 9.70806 12.7641H8.18028ZM8.94417 11.2363C9.24807 11.2363 9.53951 11.1156 9.7544 10.9007C9.96929 10.6858 10.09 10.3944 10.09 10.0905C10.09 9.7866 9.96929 9.49515 9.7544 9.28027C9.53951 9.06538 9.24807 8.94466 8.94417 8.94466C8.64028 8.94466 8.34883 9.06538 8.13395 9.28027C7.91906 9.49515 7.79834 9.7866 7.79834 10.0905C7.79834 10.3944 7.91906 10.6858 8.13395 10.9007C8.34883 11.1156 8.64028 11.2363 8.94417 11.2363V11.2363ZM15.0553 11.2363C15.3592 11.2363 15.6506 11.1156 15.8655 10.9007C16.0804 10.6858 16.2011 10.3944 16.2011 10.0905C16.2011 9.7866 16.0804 9.49515 15.8655 9.28027C15.6506 9.06538 15.3592 8.94466 15.0553 8.94466C14.7514 8.94466 14.4599 9.06538 14.2451 9.28027C14.0302 9.49515 13.9095 9.7866 13.9095 10.0905C13.9095 10.3944 14.0302 10.6858 14.2451 10.9007C14.4599 11.1156 14.7514 11.2363 15.0553 11.2363Z" fill="#0BD65D"/>
</svg>
