<svg width="152" height="24" viewBox="0 0 152 24" fill="none" xmlns="http://www.w3.org/2000/svg">
<path d="M12 17.5195L16.15 20.0295C16.91 20.4895 17.84 19.8095 17.64 18.9495L16.54 14.2295L20.21 11.0495C20.88 10.4695 20.52 9.36952 19.64 9.29952L14.81 8.88952L12.92 4.42952C12.58 3.61952 11.42 3.61952 11.08 4.42952L9.19001 8.87952L4.36001 9.28952C3.48001 9.35952 3.12001 10.4595 3.79001 11.0395L7.46001 14.2195L6.36001 18.9395C6.16001 19.7995 7.09001 20.4795 7.85001 20.0195L12 17.5195Z" fill="#F6D550"/>
<path d="M44 17.5195L48.15 20.0295C48.91 20.4895 49.84 19.8095 49.64 18.9495L48.54 14.2295L52.21 11.0495C52.88 10.4695 52.52 9.36952 51.64 9.29952L46.81 8.88952L44.92 4.42952C44.58 3.61952 43.42 3.61952 43.08 4.42952L41.19 8.87952L36.36 9.28952C35.48 9.35952 35.12 10.4595 35.79 11.0395L39.46 14.2195L38.36 18.9395C38.16 19.7995 39.09 20.4795 39.85 20.0195L44 17.5195Z" fill="#F6D550"/>
<path d="M76 17.5195L80.15 20.0295C80.91 20.4895 81.84 19.8095 81.64 18.9495L80.54 14.2295L84.21 11.0495C84.88 10.4695 84.52 9.36952 83.64 9.29952L78.81 8.88952L76.92 4.42952C76.58 3.61952 75.42 3.61952 75.08 4.42952L73.19 8.87952L68.36 9.28952C67.48 9.35952 67.12 10.4595 67.79 11.0395L71.46 14.2195L70.36 18.9395C70.16 19.7995 71.09 20.4795 71.85 20.0195L76 17.5195Z" fill="#F6D550"/>
<path d="M108 17.5195L112.15 20.0295C112.91 20.4895 113.84 19.8095 113.64 18.9495L112.54 14.2295L116.21 11.0495C116.88 10.4695 116.52 9.36952 115.64 9.29952L110.81 8.88952L108.92 4.42952C108.58 3.61952 107.42 3.61952 107.08 4.42952L105.19 8.87952L100.36 9.28952C99.48 9.35952 99.12 10.4595 99.79 11.0395L103.46 14.2195L102.36 18.9395C102.16 19.7995 103.09 20.4795 103.85 20.0195L108 17.5195Z" fill="#F6D550"/>
<path d="M140 17.5195L144.15 20.0295C144.91 20.4895 145.84 19.8095 145.64 18.9495L144.54 14.2295L148.21 11.0495C148.88 10.4695 148.52 9.36952 147.64 9.29952L142.81 8.88952L140.92 4.42952C140.58 3.61952 139.42 3.61952 139.08 4.42952L137.19 8.87952L132.36 9.28952C131.48 9.35952 131.12 10.4595 131.79 11.0395L135.46 14.2195L134.36 18.9395C134.16 19.7995 135.09 20.4795 135.85 20.0195L140 17.5195Z" fill="#F6D550"/>
</svg>
