<svg width="178" height="49" viewBox="0 0 178 49" fill="none" xmlns="http://www.w3.org/2000/svg">
<path d="M26.9313 39.1219V26.4352H23.0005V23.6275H34.0233V26.4352H30.1549V39.1219H26.9313Z" fill="#020202"/>
<path d="M34.767 39.1219V23.3779H37.8867V30.0124L37.5123 29.5133C37.7758 28.8339 38.1987 28.3347 38.781 28.0158C39.3772 27.6831 40.0705 27.5167 40.8608 27.5167C41.7204 27.5167 42.4691 27.6969 43.1069 28.0574C43.7586 28.4179 44.2647 28.924 44.6252 29.5757C44.9857 30.2135 45.1659 30.9622 45.1659 31.8218V39.1219H42.0462V32.4874C42.0462 32.0437 41.9561 31.6624 41.7759 31.3435C41.6095 31.0246 41.3669 30.775 41.048 30.5948C40.7429 30.4145 40.3824 30.3244 39.9665 30.3244C39.5644 30.3244 39.2039 30.4145 38.885 30.5948C38.5661 30.775 38.3165 31.0246 38.1363 31.3435C37.9699 31.6624 37.8867 32.0437 37.8867 32.4874V39.1219H34.767Z" fill="#020202"/>
<path d="M52.0632 39.3714C50.8569 39.3714 49.8101 39.108 48.9227 38.5811C48.0353 38.0404 47.349 37.3194 46.8637 36.4182C46.3784 35.5169 46.1358 34.5186 46.1358 33.4233C46.1358 32.2863 46.3854 31.2742 46.8845 30.3868C47.3975 29.4994 48.0838 28.7992 48.9435 28.2862C49.8031 27.7732 50.7737 27.5167 51.8552 27.5167C52.7564 27.5167 53.5537 27.6623 54.2469 27.9534C54.9402 28.2308 55.5225 28.6259 55.9939 29.1389C56.4792 29.6519 56.8467 30.2481 57.0962 30.9275C57.3458 31.5931 57.4706 32.321 57.4706 33.1113C57.4706 33.3331 57.4567 33.555 57.429 33.7768C57.4151 33.9848 57.3805 34.1651 57.325 34.3176H48.8187V32.0298H55.5572L54.0805 33.1113C54.2192 32.5151 54.2123 31.9882 54.0597 31.5307C53.9072 31.0593 53.6369 30.6918 53.2486 30.4284C52.8743 30.1511 52.4098 30.0124 51.8552 30.0124C51.3144 30.0124 50.85 30.1442 50.4617 30.4076C50.0735 30.671 49.7823 31.0593 49.5882 31.5723C49.3941 32.0853 49.3178 32.7092 49.3594 33.4441C49.304 34.0819 49.3802 34.6434 49.5882 35.1287C49.7962 35.614 50.1151 35.9953 50.5449 36.2726C50.9747 36.536 51.4947 36.6677 52.1047 36.6677C52.6594 36.6677 53.1308 36.5568 53.519 36.335C53.9211 36.1131 54.2331 35.8081 54.4549 35.4199L56.9506 36.6053C56.7288 37.1599 56.3752 37.6452 55.89 38.0612C55.4185 38.4771 54.857 38.803 54.2053 39.0387C53.5537 39.2605 52.8396 39.3714 52.0632 39.3714Z" fill="#020202"/>
<path d="M58.6837 39.1219V27.7663H61.5954V30.4908L61.3874 30.0956C61.637 29.1389 62.046 28.4942 62.6145 28.1614C63.1968 27.8148 63.8831 27.6415 64.6735 27.6415H65.339V30.3452H64.3615C63.5989 30.3452 62.9819 30.5809 62.5105 31.0523C62.0391 31.5099 61.8034 32.1615 61.8034 33.0073V39.1219H58.6837Z" fill="#020202"/>
<path d="M66.0823 39.1219V27.7663H68.994V30.5324L68.6821 30.0748C68.8485 29.2013 69.2505 28.5566 69.8883 28.1406C70.5261 27.7247 71.2887 27.5167 72.1761 27.5167C73.1189 27.5167 73.9439 27.7593 74.651 28.2446C75.372 28.716 75.8227 29.3538 76.0029 30.158L75.1086 30.2412C75.483 29.3122 76.0168 28.6259 76.71 28.1822C77.4033 27.7385 78.2144 27.5167 79.1434 27.5167C79.9614 27.5167 80.6824 27.6969 81.3063 28.0574C81.9441 28.4179 82.4433 28.924 82.8038 29.5757C83.1643 30.2135 83.3445 30.9622 83.3445 31.8218V39.1219H80.2249V32.4874C80.2249 32.0437 80.1417 31.6624 79.9753 31.3435C79.8228 31.0246 79.6009 30.775 79.3097 30.5948C79.0186 30.4145 78.665 30.3244 78.2491 30.3244C77.847 30.3244 77.4934 30.4145 77.1884 30.5948C76.8972 30.775 76.6684 31.0246 76.502 31.3435C76.3495 31.6624 76.2733 32.0437 76.2733 32.4874V39.1219H73.1536V32.4874C73.1536 32.0437 73.0704 31.6624 72.904 31.3435C72.7515 31.0246 72.5297 30.775 72.2385 30.5948C71.9473 30.4145 71.5938 30.3244 71.1778 30.3244C70.7757 30.3244 70.4222 30.4145 70.1171 30.5948C69.8259 30.775 69.5972 31.0246 69.4308 31.3435C69.2783 31.6624 69.202 32.0437 69.202 32.4874V39.1219H66.0823Z" fill="#020202"/>
<path d="M90.4098 39.3714C89.2867 39.3714 88.2607 39.1149 87.3317 38.6019C86.4166 38.0889 85.6817 37.3887 85.1271 36.5014C84.5864 35.6001 84.316 34.581 84.316 33.4441C84.316 32.2933 84.5864 31.2742 85.1271 30.3868C85.6817 29.4994 86.4166 28.7992 87.3317 28.2862C88.2607 27.7732 89.2867 27.5167 90.4098 27.5167C91.5329 27.5167 92.5519 27.7732 93.4671 28.2862C94.3822 28.7992 95.1101 29.4994 95.6508 30.3868C96.2054 31.2742 96.4827 32.2933 96.4827 33.4441C96.4827 34.581 96.2054 35.6001 95.6508 36.5014C95.1101 37.3887 94.3822 38.0889 93.4671 38.6019C92.5519 39.1149 91.5329 39.3714 90.4098 39.3714ZM90.4098 36.5637C90.9782 36.5637 91.4705 36.432 91.8864 36.1686C92.3162 35.9051 92.649 35.5377 92.8847 35.0663C93.1343 34.5949 93.2591 34.0541 93.2591 33.4441C93.2591 32.834 93.1343 32.3002 92.8847 31.8426C92.649 31.3712 92.3162 31.0038 91.8864 30.7404C91.4705 30.4631 90.9782 30.3244 90.4098 30.3244C89.8413 30.3244 89.3421 30.4631 88.9123 30.7404C88.4825 31.0038 88.1428 31.3712 87.8932 31.8426C87.6575 32.3002 87.5397 32.834 87.5397 33.4441C87.5397 34.0541 87.6575 34.5949 87.8932 35.0663C88.1428 35.5377 88.4825 35.9051 88.9123 36.1686C89.3421 36.432 89.8413 36.5637 90.4098 36.5637Z" fill="#020202"/>
<path d="M103.562 39.3714C102.591 39.3714 101.676 39.1981 100.816 38.8515C99.9705 38.491 99.2357 37.9849 98.6117 37.3333C98.0017 36.6816 97.5441 35.9121 97.2391 35.0247L99.8804 33.8392C100.269 34.685 100.802 35.3505 101.482 35.8358C102.175 36.3211 102.938 36.5637 103.77 36.5637C104.213 36.5637 104.595 36.4944 104.913 36.3558C105.232 36.2171 105.482 36.0299 105.662 35.7942C105.842 35.5447 105.933 35.2535 105.933 34.9207C105.933 34.5602 105.822 34.2552 105.6 34.0056C105.378 33.7422 105.031 33.5342 104.56 33.3817L101.523 32.3834C100.289 31.9813 99.3605 31.4128 98.7365 30.678C98.1126 29.9292 97.8006 29.0349 97.8006 27.995C97.8006 27.0799 98.0225 26.2758 98.4662 25.5825C98.9237 24.8892 99.5546 24.3485 100.359 23.9603C101.177 23.572 102.113 23.3779 103.166 23.3779C104.095 23.3779 104.955 23.5374 105.745 23.8563C106.536 24.1752 107.215 24.6258 107.784 25.2081C108.366 25.7905 108.803 26.4907 109.094 27.3087L106.473 28.4942C106.182 27.7732 105.745 27.2117 105.163 26.8096C104.581 26.3936 103.915 26.1856 103.166 26.1856C102.737 26.1856 102.355 26.255 102.023 26.3936C101.69 26.5323 101.433 26.7333 101.253 26.9967C101.073 27.2463 100.983 27.5375 100.983 27.8703C100.983 28.2308 101.101 28.5497 101.336 28.827C101.572 29.0904 101.926 29.2984 102.397 29.4509L105.371 30.4076C106.619 30.8097 107.548 31.3712 108.158 32.0922C108.782 32.8132 109.094 33.6936 109.094 34.7335C109.094 35.6348 108.858 36.439 108.387 37.1461C107.915 37.8393 107.264 38.387 106.432 38.7891C105.614 39.1773 104.657 39.3714 103.562 39.3714Z" fill="#020202"/>
<path d="M116.008 39.3714C114.802 39.3714 113.755 39.108 112.868 38.5811C111.98 38.0404 111.294 37.3194 110.809 36.4182C110.324 35.5169 110.081 34.5186 110.081 33.4233C110.081 32.2863 110.33 31.2742 110.83 30.3868C111.343 29.4994 112.029 28.7992 112.889 28.2862C113.748 27.7732 114.719 27.5167 115.8 27.5167C116.702 27.5167 117.499 27.6623 118.192 27.9534C118.885 28.2308 119.468 28.6259 119.939 29.1389C120.424 29.6519 120.792 30.2481 121.041 30.9275C121.291 31.5931 121.416 32.321 121.416 33.1113C121.416 33.3331 121.402 33.555 121.374 33.7768C121.36 33.9848 121.326 34.1651 121.27 34.3176H112.764V32.0298H119.502L118.026 33.1113C118.164 32.5151 118.157 31.9882 118.005 31.5307C117.852 31.0593 117.582 30.6918 117.194 30.4284C116.819 30.1511 116.355 30.0124 115.8 30.0124C115.26 30.0124 114.795 30.1442 114.407 30.4076C114.019 30.671 113.727 31.0593 113.533 31.5723C113.339 32.0853 113.263 32.7092 113.305 33.4441C113.249 34.0819 113.325 34.6434 113.533 35.1287C113.741 35.614 114.06 35.9953 114.49 36.2726C114.92 36.536 115.44 36.6677 116.05 36.6677C116.605 36.6677 117.076 36.5568 117.464 36.335C117.866 36.1131 118.178 35.8081 118.4 35.4199L120.896 36.6053C120.674 37.1599 120.32 37.6452 119.835 38.0612C119.364 38.4771 118.802 38.803 118.15 39.0387C117.499 39.2605 116.785 39.3714 116.008 39.3714Z" fill="#020202"/>
<path d="M128.203 39.3714C127.066 39.3714 126.04 39.1149 125.125 38.6019C124.223 38.0751 123.502 37.361 122.962 36.4598C122.435 35.5585 122.171 34.5464 122.171 33.4233C122.171 32.3002 122.435 31.295 122.962 30.4076C123.488 29.5064 124.209 28.7992 125.125 28.2862C126.04 27.7732 127.066 27.5167 128.203 27.5167C129.048 27.5167 129.832 27.6623 130.553 27.9534C131.274 28.2446 131.891 28.6536 132.404 29.1805C132.917 29.6935 133.284 30.3036 133.506 31.0107L130.802 32.1754C130.608 31.6069 130.275 31.1563 129.804 30.8235C129.347 30.4908 128.813 30.3244 128.203 30.3244C127.662 30.3244 127.177 30.4561 126.747 30.7196C126.331 30.983 125.998 31.3504 125.748 31.8218C125.513 32.2933 125.395 32.834 125.395 33.4441C125.395 34.0541 125.513 34.5949 125.748 35.0663C125.998 35.5377 126.331 35.9051 126.747 36.1686C127.177 36.432 127.662 36.5637 128.203 36.5637C128.827 36.5637 129.367 36.3974 129.825 36.0646C130.282 35.7318 130.608 35.2812 130.802 34.7127L133.506 35.8982C133.298 36.5637 132.938 37.1599 132.425 37.6868C131.912 38.2137 131.295 38.6297 130.574 38.9347C129.853 39.2259 129.062 39.3714 128.203 39.3714Z" fill="#020202"/>
<path d="M138.796 39.3714C137.88 39.3714 137.097 39.1773 136.445 38.7891C135.808 38.387 135.322 37.8324 134.99 37.1253C134.657 36.4182 134.49 35.5932 134.49 34.6503V27.7663H137.61V34.4008C137.61 34.8306 137.693 35.2119 137.86 35.5447C138.04 35.8636 138.289 36.1131 138.608 36.2934C138.927 36.4736 139.288 36.5637 139.69 36.5637C140.106 36.5637 140.466 36.4736 140.771 36.2934C141.09 36.1131 141.333 35.8636 141.499 35.5447C141.68 35.2119 141.77 34.8306 141.77 34.4008V27.7663H144.889V39.1219H141.978V36.8757L142.144 37.3749C141.881 38.0543 141.451 38.5603 140.855 38.8931C140.272 39.212 139.586 39.3714 138.796 39.3714Z" fill="#020202"/>
<path d="M146.545 39.1219V27.7663H149.457V30.4908L149.249 30.0956C149.499 29.1389 149.908 28.4942 150.476 28.1614C151.059 27.8148 151.745 27.6415 152.535 27.6415H153.201V30.3452H152.223C151.461 30.3452 150.844 30.5809 150.372 31.0523C149.901 31.5099 149.665 32.1615 149.665 33.0073V39.1219H146.545Z" fill="#020202"/>
<path d="M153.944 39.1219V27.7663H157.064V39.1219H153.944ZM153.944 26.7472V23.6275H157.064V26.7472H153.944Z" fill="#020202"/>
<path d="M164.193 39.2467C162.82 39.2467 161.752 38.8792 160.99 38.1444C160.241 37.3957 159.867 36.3558 159.867 35.0247V30.47H157.953V27.7663H158.057C158.64 27.7663 159.083 27.6207 159.388 27.3295C159.707 27.0383 159.867 26.6016 159.867 26.0193V25.1873H162.986V27.7663H165.648V30.47H162.986V34.8167C162.986 35.205 163.056 35.5308 163.194 35.7942C163.333 36.0438 163.548 36.231 163.839 36.3558C164.13 36.4806 164.491 36.5429 164.921 36.5429C165.018 36.5429 165.129 36.536 165.253 36.5221C165.378 36.5083 165.51 36.4944 165.648 36.4806V39.1219C165.44 39.1496 165.205 39.1773 164.941 39.2051C164.678 39.2328 164.428 39.2467 164.193 39.2467Z" fill="#020202"/>
<path d="M168.62 43.739C168.288 43.739 167.962 43.7113 167.643 43.6558C167.338 43.6003 167.068 43.5102 166.832 43.3854V40.8273C167.026 40.8828 167.255 40.9313 167.518 40.9729C167.782 41.0145 168.024 41.0353 168.246 41.0353C168.856 41.0353 169.293 40.8897 169.556 40.5985C169.82 40.3074 170.035 39.9746 170.201 39.6002L170.971 37.8324L170.929 40.4321L165.938 27.7663H169.286L172.593 36.7717H171.345L174.652 27.7663H178L173.134 40.1826C172.829 40.9729 172.454 41.6315 172.01 42.1584C171.567 42.6852 171.061 43.0804 170.492 43.3438C169.938 43.6073 169.314 43.739 168.62 43.739Z" fill="#020202"/>
<path d="M26.9313 39.1219V26.4352H23.0005V23.6275H34.0233V26.4352H30.1549V39.1219H26.9313Z" fill="#0BD65D"/>
<path d="M34.767 39.1219V23.3779H37.8867V30.0124L37.5123 29.5133C37.7758 28.8339 38.1987 28.3347 38.781 28.0158C39.3772 27.6831 40.0705 27.5167 40.8608 27.5167C41.7204 27.5167 42.4691 27.6969 43.1069 28.0574C43.7586 28.4179 44.2647 28.924 44.6252 29.5757C44.9857 30.2135 45.1659 30.9622 45.1659 31.8218V39.1219H42.0462V32.4874C42.0462 32.0437 41.9561 31.6624 41.7759 31.3435C41.6095 31.0246 41.3669 30.775 41.048 30.5948C40.7429 30.4145 40.3824 30.3244 39.9665 30.3244C39.5644 30.3244 39.2039 30.4145 38.885 30.5948C38.5661 30.775 38.3165 31.0246 38.1363 31.3435C37.9699 31.6624 37.8867 32.0437 37.8867 32.4874V39.1219H34.767Z" fill="#0BD65D"/>
<path d="M52.0632 39.3715C50.8569 39.3715 49.8101 39.108 48.9227 38.5811C48.0353 38.0404 47.349 37.3194 46.8637 36.4182C46.3784 35.5169 46.1358 34.5186 46.1358 33.4233C46.1358 32.2863 46.3854 31.2742 46.8845 30.3868C47.3975 29.4994 48.0838 28.7992 48.9435 28.2862C49.8031 27.7732 50.7737 27.5167 51.8552 27.5167C52.7564 27.5167 53.5537 27.6623 54.2469 27.9534C54.9402 28.2308 55.5225 28.6259 55.9939 29.1389C56.4792 29.6519 56.8467 30.2481 57.0962 30.9275C57.3458 31.5931 57.4706 32.321 57.4706 33.1113C57.4706 33.3332 57.4567 33.555 57.429 33.7768C57.4151 33.9848 57.3805 34.1651 57.325 34.3176H48.8187V32.0298H55.5572L54.0805 33.1113C54.2192 32.5151 54.2123 31.9882 54.0597 31.5307C53.9072 31.0593 53.6369 30.6918 53.2486 30.4284C52.8743 30.1511 52.4098 30.0124 51.8552 30.0124C51.3144 30.0124 50.85 30.1442 50.4617 30.4076C50.0735 30.671 49.7823 31.0593 49.5882 31.5723C49.3941 32.0853 49.3178 32.7092 49.3594 33.4441C49.304 34.0819 49.3802 34.6434 49.5882 35.1287C49.7962 35.614 50.1151 35.9953 50.5449 36.2726C50.9747 36.536 51.4947 36.6677 52.1047 36.6677C52.6594 36.6677 53.1308 36.5568 53.519 36.335C53.9211 36.1131 54.2331 35.8081 54.4549 35.4199L56.9506 36.6053C56.7288 37.1599 56.3752 37.6452 55.89 38.0612C55.4185 38.4771 54.857 38.803 54.2053 39.0387C53.5537 39.2605 52.8396 39.3715 52.0632 39.3715Z" fill="#0BD65D"/>
<path d="M58.6837 39.1219V27.7663H61.5954V30.4908L61.3874 30.0956C61.637 29.1389 62.046 28.4942 62.6145 28.1614C63.1968 27.8148 63.8831 27.6415 64.6735 27.6415H65.339V30.3452H64.3615C63.5989 30.3452 62.9819 30.5809 62.5105 31.0523C62.0391 31.5099 61.8034 32.1615 61.8034 33.0073V39.1219H58.6837Z" fill="#0BD65D"/>
<path d="M66.0823 39.1219V27.7663H68.994V30.5324L68.6821 30.0748C68.8485 29.2013 69.2505 28.5566 69.8883 28.1406C70.5261 27.7247 71.2887 27.5167 72.1761 27.5167C73.1189 27.5167 73.9439 27.7593 74.651 28.2446C75.372 28.716 75.8227 29.3538 76.0029 30.158L75.1086 30.2412C75.483 29.3122 76.0168 28.6259 76.71 28.1822C77.4033 27.7385 78.2144 27.5167 79.1434 27.5167C79.9614 27.5167 80.6824 27.6969 81.3063 28.0574C81.9441 28.4179 82.4433 28.924 82.8038 29.5757C83.1643 30.2135 83.3445 30.9622 83.3445 31.8218V39.1219H80.2249V32.4874C80.2249 32.0437 80.1417 31.6624 79.9753 31.3435C79.8228 31.0246 79.6009 30.775 79.3097 30.5948C79.0186 30.4145 78.665 30.3244 78.2491 30.3244C77.847 30.3244 77.4934 30.4145 77.1884 30.5948C76.8972 30.775 76.6684 31.0246 76.502 31.3435C76.3495 31.6624 76.2733 32.0437 76.2733 32.4874V39.1219H73.1536V32.4874C73.1536 32.0437 73.0704 31.6624 72.904 31.3435C72.7515 31.0246 72.5297 30.775 72.2385 30.5948C71.9473 30.4145 71.5938 30.3244 71.1778 30.3244C70.7757 30.3244 70.4222 30.4145 70.1171 30.5948C69.8259 30.775 69.5972 31.0246 69.4308 31.3435C69.2783 31.6624 69.202 32.0437 69.202 32.4874V39.1219H66.0823Z" fill="#0BD65D"/>
<path d="M90.4098 39.3715C89.2867 39.3715 88.2607 39.1149 87.3317 38.6019C86.4166 38.0889 85.6817 37.3887 85.1271 36.5014C84.5864 35.6001 84.316 34.581 84.316 33.4441C84.316 32.2933 84.5864 31.2742 85.1271 30.3868C85.6817 29.4994 86.4166 28.7992 87.3317 28.2862C88.2607 27.7732 89.2867 27.5167 90.4098 27.5167C91.5329 27.5167 92.5519 27.7732 93.4671 28.2862C94.3822 28.7992 95.1101 29.4994 95.6508 30.3868C96.2054 31.2742 96.4827 32.2933 96.4827 33.4441C96.4827 34.581 96.2054 35.6001 95.6508 36.5014C95.1101 37.3887 94.3822 38.0889 93.4671 38.6019C92.5519 39.1149 91.5329 39.3715 90.4098 39.3715ZM90.4098 36.5637C90.9782 36.5637 91.4705 36.432 91.8864 36.1686C92.3162 35.9051 92.649 35.5377 92.8847 35.0663C93.1343 34.5949 93.2591 34.0541 93.2591 33.4441C93.2591 32.834 93.1343 32.3002 92.8847 31.8426C92.649 31.3712 92.3162 31.0038 91.8864 30.7404C91.4705 30.4631 90.9782 30.3244 90.4098 30.3244C89.8413 30.3244 89.3421 30.4631 88.9123 30.7404C88.4825 31.0038 88.1428 31.3712 87.8932 31.8426C87.6575 32.3002 87.5397 32.834 87.5397 33.4441C87.5397 34.0541 87.6575 34.5949 87.8932 35.0663C88.1428 35.5377 88.4825 35.9051 88.9123 36.1686C89.3421 36.432 89.8413 36.5637 90.4098 36.5637Z" fill="#0BD65D"/>
<path fill-rule="evenodd" clip-rule="evenodd" d="M23.5953 42.5516C22.7236 42.3678 21.87 42.9272 21.6857 43.8013C21.5013 44.6755 22.0555 45.5352 22.9273 45.7191C23.7991 45.903 24.6531 45.3414 24.8377 44.4661C25.0223 43.5908 24.4671 42.7355 23.5953 42.5516V42.5516Z" fill="#0BD65D"/>
<path fill-rule="evenodd" clip-rule="evenodd" d="M18.178 41.5086C17.3621 41.3366 16.5582 41.8616 16.3842 42.6862C16.2103 43.5108 16.7343 44.3136 17.5502 44.4856C18.3661 44.6577 19.1717 44.1307 19.3446 43.3105C19.5176 42.4903 18.9973 41.6814 18.178 41.5086Z" fill="#0BD65D"/>
<path fill-rule="evenodd" clip-rule="evenodd" d="M13.3049 38.9861C12.5394 38.8247 11.788 39.3171 11.6257 40.0867C11.4634 40.8562 11.9506 41.611 12.7172 41.7727C13.4839 41.9343 14.2344 41.4406 14.3967 40.671C14.559 39.9015 14.0716 39.1478 13.3049 38.9861Z" fill="#0BD65D"/>
<path fill-rule="evenodd" clip-rule="evenodd" d="M9.36747 35.1908C8.65557 35.0407 7.95493 35.4989 7.80331 36.2178C7.6517 36.9368 8.10831 37.6356 8.8202 37.7858C9.5321 37.9359 10.2316 37.4774 10.3826 36.7618C10.5335 36.0462 10.0794 35.3409 9.36747 35.1908Z" fill="#0BD65D"/>
<path fill-rule="evenodd" clip-rule="evenodd" d="M6.67442 30.4454C6.0151 30.3064 5.36599 30.7318 5.22622 31.3946C5.08644 32.0573 5.50737 32.7084 6.16779 32.8477C6.82821 32.987 7.47841 32.5618 7.61819 31.899C7.75796 31.2362 7.33703 30.5851 6.67442 30.4454Z" fill="#0BD65D"/>
<path fill-rule="evenodd" clip-rule="evenodd" d="M5.45116 25.1357C4.84331 25.0075 4.24575 25.4001 4.11665 26.0122C3.98755 26.6243 4.37615 27.2226 4.984 27.3508C5.59185 27.479 6.18918 27.0875 6.31805 26.4765C6.44691 25.8654 6.05901 25.2638 5.45116 25.1357Z" fill="#0BD65D"/>
<path fill-rule="evenodd" clip-rule="evenodd" d="M5.79377 19.7012C5.2374 19.5838 4.69293 19.9416 4.57498 20.5009C4.45703 21.0602 4.8122 21.6054 5.36748 21.7225C5.92275 21.8396 6.46942 21.4823 6.5869 20.9252C6.70439 20.3681 6.34796 19.818 5.79377 19.7012V19.7012Z" fill="#0BD65D"/>
<path fill-rule="evenodd" clip-rule="evenodd" d="M21.5982 38.6523C20.975 38.5209 20.364 38.9233 20.2318 39.5497C20.0997 40.1762 20.4967 40.7889 21.1199 40.9203C21.7431 41.0517 22.3537 40.6515 22.4858 40.0251C22.6179 39.3986 22.2214 38.7837 21.5982 38.6523Z" fill="#0BD65D"/>
<path fill-rule="evenodd" clip-rule="evenodd" d="M17.1046 36.9997C16.5165 36.8757 15.9377 37.255 15.8126 37.8484C15.6874 38.4419 16.0637 39.0226 16.6518 39.1466C17.24 39.2707 17.8192 38.8891 17.9439 38.2979C18.0686 37.7067 17.6927 37.1238 17.1046 36.9997Z" fill="#0BD65D"/>
<path fill-rule="evenodd" clip-rule="evenodd" d="M13.3627 34.0376C12.8064 33.9202 12.2608 34.2778 12.1428 34.8371C12.0249 35.3964 12.3801 35.9416 12.9364 36.0589C13.4928 36.1763 14.0362 35.8183 14.1537 35.2612C14.2712 34.7041 13.9191 34.1549 13.3627 34.0376Z" fill="#0BD65D"/>
<path fill-rule="evenodd" clip-rule="evenodd" d="M10.7331 30.0652C10.2096 29.9548 9.6996 30.29 9.58907 30.814C9.47855 31.3381 9.81082 31.8509 10.3332 31.9611C10.8557 32.0712 11.3659 31.735 11.4761 31.212C11.5864 30.6891 11.2533 30.1749 10.7331 30.0652Z" fill="#0BD65D"/>
<path fill-rule="evenodd" clip-rule="evenodd" d="M9.47249 25.4722C8.98512 25.3694 8.50679 25.6848 8.4037 26.1737C8.3006 26.6625 8.61083 27.1442 9.09821 27.247C9.58558 27.3498 10.0628 27.0341 10.1659 26.5453C10.269 26.0565 9.95877 25.5748 9.47249 25.4722Z" fill="#0BD65D"/>
<path fill-rule="evenodd" clip-rule="evenodd" d="M9.70707 20.7207C9.25365 20.625 8.80983 20.9178 8.7137 21.3736C8.61758 21.8294 8.9056 22.2754 9.35902 22.371C9.81244 22.4666 10.2565 22.1728 10.3522 21.7192C10.4478 21.2656 10.1605 20.8163 9.70707 20.7207V20.7207Z" fill="#0BD65D"/>
<path fill-rule="evenodd" clip-rule="evenodd" d="M20.2471 34.7915C19.7488 34.6864 19.2611 35.0079 19.1559 35.5066C19.0508 36.0054 19.367 36.4964 19.8654 36.6015C20.3637 36.7066 20.8491 36.3846 20.9543 35.8859C21.0595 35.3872 20.7432 34.8961 20.2471 34.7915Z" fill="#0BD65D"/>
<path fill-rule="evenodd" clip-rule="evenodd" d="M16.7602 32.6655C16.2871 32.5658 15.8251 32.8685 15.7248 33.3441C15.6245 33.8197 15.9248 34.2833 16.398 34.383C16.8711 34.4828 17.3331 34.1801 17.4334 33.7045C17.5337 33.2288 17.2311 32.7649 16.7602 32.6655Z" fill="#0BD65D"/>
<path fill-rule="evenodd" clip-rule="evenodd" d="M14.2272 29.4729C13.7782 29.3782 13.3386 29.6673 13.2441 30.1153C13.1496 30.5634 13.4361 31.0056 13.8841 31.1001C14.332 31.1946 14.7694 30.9051 14.8639 30.457C14.9584 30.0089 14.6741 29.5671 14.2272 29.4729Z" fill="#0BD65D"/>
<path fill-rule="evenodd" clip-rule="evenodd" d="M12.9419 25.6081C12.5202 25.5191 12.1052 25.7892 12.0156 26.2142C11.926 26.6392 12.1968 27.0528 12.6185 27.1417C13.0401 27.2306 13.4541 26.9603 13.5434 26.5364C13.6328 26.1125 13.3625 25.6967 12.9419 25.6081Z" fill="#0BD65D"/>
<path fill-rule="evenodd" clip-rule="evenodd" d="M13.0748 21.5379C12.6783 21.4542 12.2872 21.7087 12.2031 22.1072C12.1191 22.5058 12.3741 22.8965 12.7706 22.9801C13.1671 23.0637 13.5555 22.811 13.64 22.4103C13.7246 22.0095 13.4712 21.6215 13.0748 21.5379Z" fill="#0BD65D"/>
<path fill-rule="evenodd" clip-rule="evenodd" d="M20.0039 30.8732C19.6205 30.7924 19.2453 31.0364 19.1638 31.4228C19.0823 31.8093 19.327 32.184 19.7104 32.2649C20.0937 32.3457 20.4665 32.0966 20.5471 31.7146C20.6277 31.3325 20.3839 30.9534 20.0039 30.8732V30.8732Z" fill="#0BD65D"/>
<path fill-rule="evenodd" clip-rule="evenodd" d="M17.746 28.5834C17.3769 28.5056 17.0158 28.7422 16.9378 29.1121C16.8598 29.482 17.0945 29.8443 17.4636 29.9222C17.8327 30 18.1927 29.7631 18.2707 29.3932C18.3487 29.0233 18.114 28.661 17.746 28.5834Z" fill="#0BD65D"/>
<path fill-rule="evenodd" clip-rule="evenodd" d="M16.5398 25.6002C16.185 25.5253 15.8383 25.7535 15.7633 26.1091C15.6883 26.4647 15.9144 26.8137 16.2681 26.8883C16.6219 26.9629 16.9697 26.735 17.0447 26.3794C17.1197 26.0237 16.8936 25.6748 16.5398 25.6002Z" fill="#0BD65D"/>
<path fill-rule="evenodd" clip-rule="evenodd" d="M16.5779 22.3838C16.2373 22.312 15.9041 22.5303 15.8319 22.8727C15.7597 23.2151 15.9763 23.5494 16.3169 23.6213C16.6575 23.6931 16.9896 23.4745 17.0618 23.1321C17.1341 22.7897 16.9174 22.4554 16.5779 22.3838Z" fill="#0BD65D"/>
<path fill-rule="evenodd" clip-rule="evenodd" d="M6.98159 17.4611C8.06257 17.6891 9.12583 16.9922 9.355 15.9056C9.58417 14.8189 8.89218 13.7554 7.81119 13.5274C6.73021 13.2994 5.67047 13.9959 5.44176 15.0803C5.21306 16.1648 5.9017 17.2334 6.98159 17.4611Z" fill="#0BD65D"/>
<path fill-rule="evenodd" clip-rule="evenodd" d="M10.2852 12.9056C11.3125 13.1223 12.3232 12.458 12.541 11.4253C12.7587 10.3926 12.102 9.37899 11.0747 9.16234C10.0473 8.94568 9.03608 9.6075 8.81829 10.6402C8.6005 11.6729 9.2579 12.6889 10.2852 12.9056Z" fill="#0BD65D"/>
<path fill-rule="evenodd" clip-rule="evenodd" d="M14.7021 9.45606C15.678 9.66187 16.6364 9.03374 16.8428 8.05499C17.0492 7.07623 16.4268 6.11127 15.4509 5.90547C14.4751 5.69966 13.5167 6.32779 13.3096 7.30985C13.1025 8.29191 13.7263 9.25026 14.7021 9.45606Z" fill="#0BD65D"/>
<path fill-rule="evenodd" clip-rule="evenodd" d="M19.8766 7.3803C20.7977 7.57456 21.7079 6.97995 21.9034 6.05294C22.0989 5.12593 21.5072 4.21576 20.585 4.02127C19.6629 3.82679 18.7554 4.41966 18.5596 5.34776C18.3639 6.27587 18.9555 7.18605 19.8766 7.3803Z" fill="#0BD65D"/>
<path fill-rule="evenodd" clip-rule="evenodd" d="M25.3944 6.84654C26.2662 7.0304 27.1202 6.46879 27.3045 5.59463C27.4889 4.72047 26.9344 3.86183 26.0626 3.67797C25.1908 3.49411 24.3368 4.05571 24.1525 4.92988C23.9681 5.80404 24.5226 6.66268 25.3944 6.84654Z" fill="#0BD65D"/>
<path fill-rule="evenodd" clip-rule="evenodd" d="M30.8113 7.88797C31.6294 8.06051 32.4317 7.53284 32.6051 6.71042C32.7786 5.888 32.2573 5.08351 31.4391 4.91097C30.621 4.73843 29.8182 5.26367 29.6447 6.08608C29.4713 6.9085 29.9921 7.71519 30.8113 7.88797Z" fill="#0BD65D"/>
<path fill-rule="evenodd" clip-rule="evenodd" d="M35.686 10.4086C36.4516 10.5701 37.204 10.0779 37.3663 9.30835C37.5286 8.53877 37.039 7.78466 36.2734 7.62321C35.5079 7.46176 34.7568 7.95307 34.5943 8.72374C34.4317 9.49441 34.9204 10.2472 35.686 10.4086Z" fill="#0BD65D"/>
<path fill-rule="evenodd" clip-rule="evenodd" d="M39.6231 14.2049C40.3371 14.3555 41.0356 13.8968 41.187 13.179C41.3384 12.4612 40.8835 11.7592 40.1706 11.6089C39.4576 11.4585 38.7565 11.919 38.6055 12.6346C38.4546 13.3502 38.9112 14.0548 39.6231 14.2049Z" fill="#0BD65D"/>
<path fill-rule="evenodd" clip-rule="evenodd" d="M42.3154 18.9505C42.9747 19.0895 43.6238 18.6641 43.7636 18.0013C43.9034 17.3385 43.4824 16.6875 42.822 16.5482C42.1616 16.4089 41.5127 16.8332 41.3727 17.4971C41.2327 18.161 41.6539 18.811 42.3154 18.9505Z" fill="#0BD65D"/>
<path fill-rule="evenodd" clip-rule="evenodd" d="M10.8751 18.4068C11.6352 18.5671 12.3812 18.0782 12.5419 17.3163C12.7026 16.5545 12.2175 15.8059 11.4574 15.6456C10.6974 15.4853 9.95401 15.9725 9.79287 16.7366C9.63173 17.5006 10.115 18.2465 10.8751 18.4068V18.4068Z" fill="#0BD65D"/>
<path fill-rule="evenodd" clip-rule="evenodd" d="M13.9061 14.5904C14.6311 14.7433 15.3443 14.2797 15.4985 13.5487C15.6527 12.8176 15.1874 12.1054 14.4624 11.9525C13.7374 11.7996 13.0254 12.2681 12.8722 12.9948C12.7189 13.7214 13.181 14.4375 13.9061 14.5904Z" fill="#0BD65D"/>
<path fill-rule="evenodd" clip-rule="evenodd" d="M17.9417 11.8927C18.6327 12.0384 19.3111 11.5939 19.458 10.897C19.605 10.2001 19.1635 9.52164 18.4724 9.37589C17.7814 9.23014 17.1026 9.6769 16.9565 10.3694C16.8105 11.0619 17.2495 11.7467 17.9417 11.8927Z" fill="#0BD65D"/>
<path fill-rule="evenodd" clip-rule="evenodd" d="M22.5869 10.5643C23.2451 10.7031 23.8894 10.279 24.0284 9.61952C24.1675 8.96004 23.7496 8.31075 23.0914 8.17193C22.4332 8.03311 21.7887 8.45836 21.6496 9.11783C21.5105 9.77731 21.9308 10.426 22.5869 10.5643Z" fill="#0BD65D"/>
<path fill-rule="evenodd" clip-rule="evenodd" d="M27.3916 10.7421C28.0148 10.8735 28.6259 10.4711 28.7575 9.84686C28.8892 9.22261 28.4931 8.60552 27.8699 8.47409C27.2468 8.34267 26.6357 8.74506 26.5036 9.37151C26.3715 9.99795 26.7685 10.6106 27.3916 10.7421Z" fill="#0BD65D"/>
<path fill-rule="evenodd" clip-rule="evenodd" d="M31.8865 12.3952C32.4746 12.5192 33.0533 12.1399 33.178 11.5487C33.3027 10.9574 32.9269 10.3745 32.3388 10.2505C31.7506 10.1264 31.1719 10.5058 31.0467 11.0992C30.9216 11.6926 31.2983 12.2711 31.8865 12.3952Z" fill="#0BD65D"/>
<path fill-rule="evenodd" clip-rule="evenodd" d="M35.6283 15.357C36.1836 15.4742 36.7292 15.1166 36.8467 14.5595C36.9642 14.0024 36.6094 13.455 36.0542 13.3379C35.4989 13.2208 34.9527 13.5759 34.8347 14.1352C34.7168 14.6945 35.072 15.2397 35.6283 15.357Z" fill="#0BD65D"/>
<path fill-rule="evenodd" clip-rule="evenodd" d="M38.256 19.3324C38.7795 19.4428 39.2895 19.1077 39.4002 18.5825C39.511 18.0573 39.1785 17.5456 38.656 17.4355C38.1336 17.3253 37.6234 17.6616 37.5131 18.1845C37.4028 18.7075 37.7368 19.2229 38.256 19.3324Z" fill="#0BD65D"/>
<path fill-rule="evenodd" clip-rule="evenodd" d="M14.2812 19.5397C14.8792 19.6658 15.4672 19.2804 15.594 18.6793C15.7208 18.0782 15.338 17.4903 14.74 17.3642C14.142 17.2381 13.5539 17.6235 13.4276 18.2224C13.3013 18.8214 13.6832 19.4136 14.2812 19.5397Z" fill="#0BD65D"/>
<path fill-rule="evenodd" clip-rule="evenodd" d="M17.0338 16.4299C17.6077 16.551 18.1696 16.1807 18.2913 15.6038C18.4129 15.0269 18.0474 14.4657 17.4735 14.3447C16.8996 14.2237 16.3384 14.5906 16.2169 15.1664C16.0955 15.7422 16.4599 16.3089 17.0338 16.4299Z" fill="#0BD65D"/>
<path fill-rule="evenodd" clip-rule="evenodd" d="M20.66 14.4395C21.2065 14.5547 21.7457 14.2004 21.8615 13.6511C21.9774 13.1017 21.627 12.5609 21.0805 12.4457C20.534 12.3304 19.9939 12.6834 19.8781 13.2328C19.7622 13.7821 20.1124 14.324 20.66 14.4395Z" fill="#0BD65D"/>
<path fill-rule="evenodd" clip-rule="evenodd" d="M24.7258 13.8077C25.2471 13.9177 25.7611 13.5799 25.8716 13.0558C25.9821 12.5318 25.6481 12.0163 25.1268 11.9064C24.6055 11.7964 24.0907 12.1329 23.9802 12.6569C23.8696 13.181 24.2045 13.6978 24.7258 13.8077V13.8077Z" fill="#0BD65D"/>
<path fill-rule="evenodd" clip-rule="evenodd" d="M28.7435 14.6049C29.2419 14.71 29.729 14.3907 29.8347 13.8898C29.9403 13.3888 29.6236 12.9 29.1253 12.7949C28.6269 12.6898 28.1393 13.0113 28.0341 13.51C27.9289 14.0088 28.2474 14.5003 28.7435 14.6049Z" fill="#0BD65D"/>
<path fill-rule="evenodd" clip-rule="evenodd" d="M32.2298 16.7302C32.7029 16.83 33.1648 16.5272 33.2651 16.0516C33.3654 15.576 33.0651 15.1125 32.592 15.0127C32.1188 14.9129 31.6564 15.2179 31.5566 15.6913C31.4568 16.1647 31.7588 16.6309 32.2298 16.7302Z" fill="#0BD65D"/>
<path fill-rule="evenodd" clip-rule="evenodd" d="M34.7659 19.9234C35.215 20.0181 35.6519 19.7308 35.7469 19.2805C35.8418 18.8302 35.5568 18.3917 35.1089 18.2973C34.6609 18.2028 34.2229 18.4899 34.1281 18.9391C34.0334 19.3883 34.3202 19.8294 34.7659 19.9234V19.9234Z" fill="#0BD65D"/>
<path fill-rule="evenodd" clip-rule="evenodd" d="M17.4648 20.803C17.9051 20.8958 18.3365 20.6131 18.4298 20.1705C18.5232 19.7279 18.242 19.2983 17.8017 19.2055C17.3614 19.1126 16.9338 19.3939 16.8407 19.8353C16.7476 20.2768 17.0278 20.7108 17.4648 20.803Z" fill="#0BD65D"/>
<path fill-rule="evenodd" clip-rule="evenodd" d="M19.7829 18.5081C20.2078 18.5977 20.6257 18.3248 20.7161 17.8965C20.8064 17.4682 20.5351 17.0511 20.1091 16.9612C19.6831 16.8714 19.2658 17.1468 19.1762 17.5717C19.0865 17.9967 19.359 18.4187 19.7829 18.5081Z" fill="#0BD65D"/>
<path fill-rule="evenodd" clip-rule="evenodd" d="M22.7843 17.2716C23.1961 17.3584 23.5975 17.0935 23.6843 16.6817C23.7711 16.27 23.5114 15.8633 23.0996 15.7765C22.6878 15.6896 22.2865 15.9546 22.1992 16.3685C22.1119 16.7825 22.3725 17.1847 22.7843 17.2716V17.2716Z" fill="#0BD65D"/>
<path fill-rule="evenodd" clip-rule="evenodd" d="M26.0172 17.2802C26.4114 17.3633 26.8015 17.1087 26.8855 16.7101C26.9696 16.3116 26.7161 15.9189 26.3218 15.8357C25.9275 15.7526 25.5337 16.0087 25.4497 16.4073C25.3656 16.8058 25.6185 17.1961 26.0172 17.2802V17.2802Z" fill="#0BD65D"/>
<path fill-rule="evenodd" clip-rule="evenodd" d="M28.9861 18.522C29.3695 18.6028 29.7447 18.3588 29.8262 17.9724C29.9077 17.5859 29.6627 17.2123 29.2794 17.1315C28.8961 17.0506 28.5237 17.2975 28.4429 17.6807C28.3621 18.0638 28.6061 18.4418 28.9861 18.522Z" fill="#0BD65D"/>
<path fill-rule="evenodd" clip-rule="evenodd" d="M31.2469 20.8152C31.6138 20.8926 31.976 20.6562 32.0545 20.2841C32.133 19.9119 31.8966 19.5516 31.5297 19.4742C31.1628 19.3969 30.7985 19.6328 30.7205 20.0027C30.6425 20.3727 30.8789 20.7376 31.2469 20.8152Z" fill="#0BD65D"/>
<path d="M104.274 46.5431V42.6177H105.702C105.965 42.6177 106.197 42.6668 106.397 42.7652C106.601 42.86 106.759 43.0006 106.872 43.1867C106.984 43.3694 107.04 43.5889 107.04 43.8453C107.04 44.0983 106.982 44.316 106.866 44.4987C106.754 44.6814 106.598 44.8219 106.397 44.9202C106.197 45.0186 105.965 45.0677 105.702 45.0677H104.896V46.5431H104.274ZM104.896 44.5145H105.718C105.858 44.5145 105.981 44.4864 106.086 44.4302C106.192 44.374 106.274 44.2967 106.334 44.1984C106.394 44.0965 106.424 43.9771 106.424 43.8401C106.424 43.7031 106.394 43.5854 106.334 43.4871C106.274 43.3852 106.192 43.3079 106.086 43.2552C105.981 43.199 105.858 43.1709 105.718 43.1709H104.896V44.5145Z" fill="#020202" fill-opacity="0.45"/>
<path d="M108.947 46.6063C108.673 46.6063 108.422 46.5413 108.194 46.4113C107.969 46.2814 107.79 46.104 107.656 45.8792C107.523 45.6544 107.456 45.3997 107.456 45.1152C107.456 44.8271 107.523 44.5725 107.656 44.3512C107.79 44.1264 107.969 43.9507 108.194 43.8243C108.419 43.6943 108.67 43.6293 108.947 43.6293C109.228 43.6293 109.479 43.6943 109.701 43.8243C109.926 43.9507 110.103 44.1264 110.233 44.3512C110.366 44.5725 110.433 44.8271 110.433 45.1152C110.433 45.4032 110.366 45.6596 110.233 45.8844C110.099 46.1093 109.92 46.2866 109.695 46.4166C109.471 46.5431 109.221 46.6063 108.947 46.6063ZM108.947 46.053C109.116 46.053 109.265 46.0127 109.395 45.9319C109.525 45.8511 109.627 45.7404 109.701 45.5999C109.778 45.4559 109.817 45.2943 109.817 45.1152C109.817 44.936 109.778 44.7762 109.701 44.6357C109.627 44.4952 109.525 44.3845 109.395 44.3037C109.265 44.223 109.116 44.1826 108.947 44.1826C108.782 44.1826 108.633 44.223 108.499 44.3037C108.369 44.3845 108.266 44.4952 108.189 44.6357C108.115 44.7762 108.078 44.936 108.078 45.1152C108.078 45.2943 108.115 45.4559 108.189 45.5999C108.266 45.7404 108.369 45.8511 108.499 45.9319C108.633 46.0127 108.782 46.053 108.947 46.053Z" fill="#020202" fill-opacity="0.45"/>
<path d="M111.706 46.5431L110.726 43.6925H111.358L112.106 45.9635H111.885L112.649 43.6925H113.192L113.95 45.9635H113.729L114.483 43.6925H115.115L114.13 46.5431H113.592L112.823 44.2194H113.018L112.249 46.5431H111.706Z" fill="#020202" fill-opacity="0.45"/>
<path d="M116.863 46.6063C116.578 46.6063 116.325 46.5413 116.104 46.4113C115.886 46.2779 115.716 46.0987 115.593 45.8739C115.47 45.6456 115.408 45.3909 115.408 45.1099C115.408 44.8219 115.47 44.5672 115.593 44.3459C115.719 44.1246 115.888 43.9507 116.099 43.8243C116.309 43.6943 116.548 43.6293 116.815 43.6293C117.029 43.6293 117.221 43.6662 117.39 43.74C117.558 43.8137 117.7 43.9156 117.816 44.0456C117.932 44.172 118.02 44.3178 118.08 44.4829C118.143 44.648 118.175 44.8236 118.175 45.0098C118.175 45.0555 118.173 45.1029 118.169 45.1521C118.166 45.2012 118.159 45.2469 118.148 45.289H115.877V44.8148H117.811L117.527 45.0309C117.562 44.8587 117.549 44.7059 117.49 44.5725C117.433 44.4355 117.346 44.3283 117.226 44.2511C117.11 44.1703 116.973 44.1299 116.815 44.1299C116.657 44.1299 116.517 44.1703 116.394 44.2511C116.271 44.3283 116.176 44.4407 116.109 44.5883C116.042 44.7323 116.016 44.9079 116.03 45.1152C116.013 45.3084 116.039 45.477 116.109 45.621C116.183 45.765 116.285 45.8774 116.415 45.9582C116.548 46.039 116.699 46.0794 116.868 46.0794C117.04 46.0794 117.186 46.0408 117.305 45.9635C117.428 45.8862 117.525 45.7861 117.595 45.6631L118.08 45.9002C118.024 46.0337 117.936 46.1549 117.816 46.2638C117.7 46.3692 117.56 46.4535 117.395 46.5167C117.233 46.5764 117.056 46.6063 116.863 46.6063Z" fill="#020202" fill-opacity="0.45"/>
<path d="M118.808 46.5431V43.6925H119.377V44.2669L119.325 44.1826C119.388 43.9964 119.49 43.8629 119.63 43.7821C119.771 43.6978 119.939 43.6557 120.136 43.6557H120.31V44.1984H120.062C119.866 44.1984 119.706 44.2598 119.583 44.3828C119.463 44.5022 119.404 44.6743 119.404 44.8991V46.5431H118.808Z" fill="#020202" fill-opacity="0.45"/>
<path d="M122.108 46.6063C121.824 46.6063 121.571 46.5413 121.35 46.4113C121.132 46.2779 120.961 46.0987 120.839 45.8739C120.716 45.6456 120.654 45.3909 120.654 45.1099C120.654 44.8219 120.716 44.5672 120.839 44.3459C120.965 44.1246 121.134 43.9507 121.344 43.8243C121.555 43.6943 121.794 43.6293 122.061 43.6293C122.275 43.6293 122.467 43.6662 122.635 43.74C122.804 43.8137 122.946 43.9156 123.062 44.0456C123.178 44.172 123.266 44.3178 123.326 44.4829C123.389 44.648 123.42 44.8236 123.42 45.0098C123.42 45.0555 123.419 45.1029 123.415 45.1521C123.412 45.2012 123.405 45.2469 123.394 45.289H121.123V44.8148H123.057L122.772 45.0309C122.807 44.8587 122.795 44.7059 122.735 44.5725C122.679 44.4355 122.591 44.3283 122.472 44.2511C122.356 44.1703 122.219 44.1299 122.061 44.1299C121.903 44.1299 121.762 44.1703 121.639 44.2511C121.516 44.3283 121.422 44.4407 121.355 44.5883C121.288 44.7323 121.262 44.9079 121.276 45.1152C121.258 45.3084 121.285 45.477 121.355 45.621C121.429 45.765 121.531 45.8774 121.661 45.9582C121.794 46.039 121.945 46.0794 122.114 46.0794C122.286 46.0794 122.432 46.0408 122.551 45.9635C122.674 45.8862 122.771 45.7861 122.841 45.6631L123.326 45.9002C123.269 46.0337 123.181 46.1549 123.062 46.2638C122.946 46.3692 122.806 46.4535 122.641 46.5167C122.479 46.5764 122.302 46.6063 122.108 46.6063Z" fill="#020202" fill-opacity="0.45"/>
<path d="M125.371 46.6063C125.097 46.6063 124.851 46.5413 124.634 46.4113C124.419 46.2779 124.249 46.0987 124.123 45.8739C124 45.6491 123.938 45.3962 123.938 45.1152C123.938 44.8342 124.001 44.5812 124.128 44.3564C124.254 44.1316 124.425 43.9542 124.639 43.8243C124.853 43.6943 125.096 43.6293 125.366 43.6293C125.594 43.6293 125.796 43.675 125.972 43.7663C126.148 43.8576 126.286 43.9841 126.388 44.1457L126.299 44.2827V42.5544H126.889V46.5431H126.325V45.9635L126.394 46.0741C126.295 46.2462 126.155 46.378 125.972 46.4693C125.789 46.5606 125.589 46.6063 125.371 46.6063ZM125.429 46.053C125.594 46.053 125.742 46.0127 125.872 45.9319C126.005 45.8511 126.109 45.7404 126.183 45.5999C126.26 45.4559 126.299 45.2943 126.299 45.1152C126.299 44.936 126.26 44.7762 126.183 44.6357C126.109 44.4952 126.005 44.3845 125.872 44.3037C125.742 44.223 125.594 44.1826 125.429 44.1826C125.264 44.1826 125.115 44.223 124.981 44.3037C124.848 44.3845 124.744 44.4952 124.671 44.6357C124.597 44.7762 124.56 44.936 124.56 45.1152C124.56 45.2943 124.597 45.4559 124.671 45.5999C124.744 45.7404 124.846 45.8511 124.976 45.9319C125.11 46.0127 125.261 46.053 125.429 46.053Z" fill="#020202" fill-opacity="0.45"/>
<path d="M130.133 46.6063C129.912 46.6063 129.71 46.5606 129.527 46.4693C129.348 46.378 129.209 46.2462 129.111 46.0741L129.179 45.9635V46.5431H128.61V42.5544H129.206V44.2827L129.111 44.1457C129.216 43.9841 129.357 43.8576 129.532 43.7663C129.708 43.675 129.908 43.6293 130.133 43.6293C130.404 43.6293 130.646 43.6943 130.86 43.8243C131.078 43.9542 131.248 44.1316 131.371 44.3564C131.498 44.5812 131.561 44.8342 131.561 45.1152C131.561 45.3962 131.498 45.6491 131.371 45.8739C131.248 46.0987 131.08 46.2779 130.865 46.4113C130.651 46.5413 130.407 46.6063 130.133 46.6063ZM130.075 46.053C130.244 46.053 130.393 46.0127 130.523 45.9319C130.653 45.8511 130.755 45.7404 130.829 45.5999C130.906 45.4559 130.944 45.2943 130.944 45.1152C130.944 44.936 130.906 44.7762 130.829 44.6357C130.755 44.4952 130.653 44.3845 130.523 44.3037C130.393 44.223 130.244 44.1826 130.075 44.1826C129.91 44.1826 129.761 44.223 129.627 44.3037C129.497 44.3845 129.394 44.4952 129.316 44.6357C129.243 44.7762 129.206 44.936 129.206 45.1152C129.206 45.2943 129.243 45.4559 129.316 45.5999C129.394 45.7404 129.497 45.8511 129.627 45.9319C129.761 46.0127 129.91 46.053 130.075 46.053Z" fill="#020202" fill-opacity="0.45"/>
<path d="M132.394 47.7075C132.324 47.7075 132.254 47.7005 132.184 47.6864C132.117 47.6759 132.055 47.6583 131.999 47.6337V47.1227C132.041 47.1332 132.092 47.142 132.152 47.149C132.212 47.1595 132.27 47.1648 132.326 47.1648C132.491 47.1648 132.612 47.1279 132.689 47.0542C132.77 46.9839 132.842 46.8733 132.905 46.7222L133.095 46.2902L133.085 46.7907L131.852 43.6925H132.489L133.401 46.0689H133.185L134.091 43.6925H134.734L133.474 46.8539C133.408 47.0225 133.323 47.1701 133.222 47.2965C133.123 47.4265 133.005 47.5266 132.868 47.5969C132.735 47.6706 132.577 47.7075 132.394 47.7075Z" fill="#020202" fill-opacity="0.45"/>
<path d="M136.226 46.5431V42.6177H136.847V44.3459H138.665V42.6177H139.282V46.5431H138.665V44.8991H136.847V46.5431H136.226Z" fill="#020202" fill-opacity="0.45"/>
<path d="M141.465 46.6063C141.191 46.6063 140.94 46.5413 140.711 46.4113C140.487 46.2814 140.308 46.104 140.174 45.8792C140.041 45.6544 139.974 45.3997 139.974 45.1152C139.974 44.8271 140.041 44.5725 140.174 44.3512C140.308 44.1264 140.487 43.9507 140.711 43.8243C140.936 43.6943 141.187 43.6293 141.465 43.6293C141.746 43.6293 141.997 43.6943 142.218 43.8243C142.443 43.9507 142.621 44.1264 142.751 44.3512C142.884 44.5725 142.951 44.8271 142.951 45.1152C142.951 45.4032 142.884 45.6596 142.751 45.8844C142.617 46.1093 142.438 46.2866 142.213 46.4166C141.988 46.5431 141.739 46.6063 141.465 46.6063ZM141.465 46.053C141.634 46.053 141.783 46.0127 141.913 45.9319C142.043 45.8511 142.145 45.7404 142.218 45.5999C142.296 45.4559 142.334 45.2943 142.334 45.1152C142.334 44.936 142.296 44.7762 142.218 44.6357C142.145 44.4952 142.043 44.3845 141.913 44.3037C141.783 44.223 141.634 44.1826 141.465 44.1826C141.3 44.1826 141.151 44.223 141.017 44.3037C140.887 44.3845 140.783 44.4952 140.706 44.6357C140.632 44.7762 140.596 44.936 140.596 45.1152C140.596 45.2943 140.632 45.4559 140.706 45.5999C140.783 45.7404 140.887 45.8511 141.017 45.9319C141.151 46.0127 141.3 46.053 141.465 46.053Z" fill="#020202" fill-opacity="0.45"/>
<path d="M144.602 46.6063C144.387 46.6063 144.199 46.5589 144.038 46.464C143.876 46.3657 143.75 46.2304 143.659 46.0583C143.571 45.8827 143.527 45.6807 143.527 45.4524V43.6925H144.122V45.3997C144.122 45.5297 144.149 45.6438 144.201 45.7422C144.254 45.8405 144.328 45.9178 144.423 45.974C144.517 46.0267 144.626 46.053 144.749 46.053C144.876 46.053 144.986 46.0249 145.081 45.9687C145.176 45.9125 145.25 45.8335 145.302 45.7316C145.359 45.6298 145.387 45.5103 145.387 45.3733V43.6925H145.977V46.5431H145.413V45.9846L145.476 46.0583C145.41 46.234 145.299 46.3692 145.144 46.464C144.99 46.5589 144.809 46.6063 144.602 46.6063Z" fill="#020202" fill-opacity="0.45"/>
<path d="M147.779 46.6063C147.487 46.6063 147.231 46.5343 147.009 46.3903C146.791 46.2462 146.639 46.053 146.551 45.8107L147.009 45.5946C147.087 45.7562 147.192 45.8844 147.325 45.9793C147.462 46.0741 147.613 46.1215 147.779 46.1215C147.919 46.1215 148.033 46.0899 148.121 46.0267C148.209 45.9635 148.253 45.8774 148.253 45.7685C148.253 45.6983 148.233 45.6421 148.195 45.5999C148.156 45.5543 148.107 45.5174 148.047 45.4893C147.991 45.4612 147.933 45.4401 147.873 45.426L147.426 45.2996C147.18 45.2293 146.995 45.124 146.872 44.9834C146.753 44.8394 146.693 44.6726 146.693 44.4829C146.693 44.3108 146.737 44.1615 146.825 44.035C146.913 43.9051 147.034 43.8049 147.188 43.7347C147.343 43.6644 147.517 43.6293 147.71 43.6293C147.97 43.6293 148.202 43.6943 148.406 43.8243C148.609 43.9507 148.753 44.1281 148.838 44.3564L148.379 44.5725C148.323 44.4355 148.233 44.3266 148.11 44.2458C147.991 44.165 147.856 44.1246 147.705 44.1246C147.575 44.1246 147.471 44.1562 147.394 44.2194C147.317 44.2792 147.278 44.3582 147.278 44.4565C147.278 44.5233 147.296 44.5795 147.331 44.6252C147.366 44.6673 147.411 44.7024 147.468 44.7305C147.524 44.7551 147.582 44.7762 147.642 44.7938L148.105 44.9308C148.341 44.9975 148.521 45.1029 148.648 45.2469C148.774 45.3874 148.838 45.556 148.838 45.7527C148.838 45.9213 148.792 46.0706 148.701 46.2006C148.613 46.327 148.49 46.4271 148.332 46.5009C148.174 46.5712 147.989 46.6063 147.779 46.6063Z" fill="#020202" fill-opacity="0.45"/>
<path d="M150.812 46.6063C150.527 46.6063 150.275 46.5413 150.053 46.4113C149.835 46.2779 149.665 46.0987 149.542 45.8739C149.419 45.6456 149.358 45.3909 149.358 45.1099C149.358 44.8219 149.419 44.5672 149.542 44.3459C149.669 44.1246 149.837 43.9507 150.048 43.8243C150.259 43.6943 150.498 43.6293 150.765 43.6293C150.979 43.6293 151.17 43.6662 151.339 43.74C151.507 43.8137 151.65 43.9156 151.766 44.0456C151.882 44.172 151.969 44.3178 152.029 44.4829C152.092 44.648 152.124 44.8236 152.124 45.0098C152.124 45.0555 152.122 45.1029 152.119 45.1521C152.115 45.2012 152.108 45.2469 152.098 45.289H149.827V44.8148H151.76L151.476 45.0309C151.511 44.8587 151.499 44.7059 151.439 44.5725C151.383 44.4355 151.295 44.3283 151.176 44.2511C151.06 44.1703 150.923 44.1299 150.765 44.1299C150.606 44.1299 150.466 44.1703 150.343 44.2511C150.22 44.3283 150.125 44.4407 150.059 44.5883C149.992 44.7323 149.965 44.9079 149.979 45.1152C149.962 45.3084 149.988 45.477 150.059 45.621C150.132 45.765 150.234 45.8774 150.364 45.9582C150.498 46.039 150.649 46.0794 150.817 46.0794C150.989 46.0794 151.135 46.0408 151.255 45.9635C151.378 45.8862 151.474 45.7861 151.544 45.6631L152.029 45.9002C151.973 46.0337 151.885 46.1549 151.766 46.2638C151.65 46.3692 151.509 46.4535 151.344 46.5167C151.183 46.5764 151.005 46.6063 150.812 46.6063Z" fill="#020202" fill-opacity="0.45"/>
<path d="M154.644 46.6063C154.367 46.6063 154.108 46.5554 153.869 46.4535C153.634 46.3516 153.429 46.2111 153.253 46.032C153.081 45.8493 152.946 45.635 152.847 45.3892C152.749 45.1433 152.7 44.8728 152.7 44.5777C152.7 44.2862 152.747 44.0175 152.842 43.7716C152.94 43.5222 153.077 43.3079 153.253 43.1288C153.429 42.9461 153.634 42.8056 153.869 42.7072C154.105 42.6054 154.363 42.5544 154.644 42.5544C154.922 42.5544 155.169 42.6019 155.387 42.6967C155.608 42.7915 155.794 42.9162 155.945 43.0708C156.096 43.2218 156.205 43.3869 156.272 43.5661L155.714 43.8295C155.629 43.6188 155.494 43.4484 155.308 43.3184C155.125 43.185 154.904 43.1182 154.644 43.1182C154.384 43.1182 154.154 43.1797 153.954 43.3026C153.754 43.4256 153.597 43.5959 153.485 43.8137C153.376 44.0315 153.321 44.2862 153.321 44.5777C153.321 44.8693 153.376 45.1257 153.485 45.347C153.597 45.5648 153.754 45.7352 153.954 45.8581C154.154 45.9775 154.384 46.0372 154.644 46.0372C154.904 46.0372 155.125 45.9723 155.308 45.8423C155.494 45.7123 155.629 45.542 155.714 45.3312L156.272 45.5946C156.205 45.7703 156.096 45.9354 155.945 46.0899C155.794 46.2445 155.608 46.3692 155.387 46.464C155.169 46.5589 154.922 46.6063 154.644 46.6063Z" fill="#020202" fill-opacity="0.45"/>
<path d="M158.23 46.6063C157.956 46.6063 157.705 46.5413 157.477 46.4113C157.252 46.2814 157.073 46.104 156.939 45.8792C156.806 45.6544 156.739 45.3997 156.739 45.1152C156.739 44.8271 156.806 44.5725 156.939 44.3512C157.073 44.1264 157.252 43.9507 157.477 43.8243C157.701 43.6943 157.952 43.6293 158.23 43.6293C158.511 43.6293 158.762 43.6943 158.983 43.8243C159.208 43.9507 159.386 44.1264 159.516 44.3512C159.649 44.5725 159.716 44.8271 159.716 45.1152C159.716 45.4032 159.649 45.6596 159.516 45.8844C159.382 46.1093 159.203 46.2866 158.978 46.4166C158.753 46.5431 158.504 46.6063 158.23 46.6063ZM158.23 46.053C158.399 46.053 158.548 46.0127 158.678 45.9319C158.808 45.8511 158.91 45.7404 158.983 45.5999C159.061 45.4559 159.099 45.2943 159.099 45.1152C159.099 44.936 159.061 44.7762 158.983 44.6357C158.91 44.4952 158.808 44.3845 158.678 44.3037C158.548 44.223 158.399 44.1826 158.23 44.1826C158.065 44.1826 157.916 44.223 157.782 44.3037C157.652 44.3845 157.549 44.4952 157.471 44.6357C157.397 44.7762 157.361 44.936 157.361 45.1152C157.361 45.2943 157.397 45.4559 157.471 45.5999C157.549 45.7404 157.652 45.8511 157.782 45.9319C157.916 46.0127 158.065 46.053 158.23 46.053Z" fill="#020202" fill-opacity="0.45"/>
<path d="M160.35 46.5431V43.6925H160.919V44.309L160.845 44.2142C160.905 44.021 161.014 43.8752 161.172 43.7768C161.33 43.6785 161.511 43.6293 161.714 43.6293C161.943 43.6293 162.145 43.6908 162.32 43.8137C162.5 43.9332 162.619 44.093 162.679 44.2932L162.51 44.309C162.594 44.0807 162.723 43.9103 162.895 43.7979C163.07 43.6855 163.271 43.6293 163.495 43.6293C163.692 43.6293 163.869 43.675 164.028 43.7663C164.189 43.8576 164.317 43.9841 164.412 44.1457C164.507 44.3073 164.554 44.4917 164.554 44.6989V46.5431H163.959V44.8623C163.959 44.7182 163.933 44.5971 163.88 44.4987C163.831 44.3968 163.761 44.3196 163.669 44.2669C163.581 44.2107 163.478 44.1826 163.358 44.1826C163.239 44.1826 163.134 44.2107 163.042 44.2669C162.951 44.3196 162.879 44.3968 162.826 44.4987C162.774 44.6006 162.747 44.7218 162.747 44.8623V46.5431H162.157V44.8623C162.157 44.7182 162.131 44.5971 162.078 44.4987C162.029 44.3968 161.959 44.3196 161.867 44.2669C161.779 44.2107 161.674 44.1826 161.551 44.1826C161.432 44.1826 161.326 44.2107 161.235 44.2669C161.144 44.3196 161.072 44.3968 161.019 44.4987C160.97 44.6006 160.945 44.7218 160.945 44.8623V46.5431H160.35Z" fill="#020202" fill-opacity="0.45"/>
</svg>
