<svg width="48" height="48" viewBox="0 0 48 48" fill="none" xmlns="http://www.w3.org/2000/svg">
<path d="M26 21H22C21.45 21 21 21.45 21 22V26C21 26.55 21.45 27 22 27H26C26.55 27 27 26.55 27 26V22C27 21.45 26.55 21 26 21ZM25 25H23V23H25V25ZM33 22C33 21.45 32.55 21 32 21H31V19C31 17.9 30.1 17 29 17H27V16C27 15.45 26.55 15 26 15C25.45 15 25 15.45 25 16V17H23V16C23 15.45 22.55 15 22 15C21.45 15 21 15.45 21 16V17H19C17.9 17 17 17.9 17 19V21H16C15.45 21 15 21.45 15 22C15 22.55 15.45 23 16 23H17V25H16C15.45 25 15 25.45 15 26C15 26.55 15.45 27 16 27H17V29C17 30.1 17.9 31 19 31H21V32C21 32.55 21.45 33 22 33C22.55 33 23 32.55 23 32V31H25V32C25 32.55 25.45 33 26 33C26.55 33 27 32.55 27 32V31H29C30.1 31 31 30.1 31 29V27H32C32.55 27 33 26.55 33 26C33 25.45 32.55 25 32 25H31V23H32C32.55 23 33 22.55 33 22ZM28 29H20C19.45 29 19 28.55 19 28V20C19 19.45 19.45 19 20 19H28C28.55 19 29 19.45 29 20V28C29 28.55 28.55 29 28 29Z" fill="#404040"/>
<rect x="1" y="1" width="46" height="46" rx="23" stroke="#262626" stroke-width="2"/>
</svg>
