<svg width="48" height="48" viewBox="0 0 48 48" fill="none" xmlns="http://www.w3.org/2000/svg">
<rect x="1" y="1" width="46" height="46" rx="23" fill="#020202"/>
<path d="M32 21.5V19.5C32 18.4 31.1 17.5 30 17.5H27C27 15.84 25.66 14.5 24 14.5C22.34 14.5 21 15.84 21 17.5H18C16.9 17.5 16 18.4 16 19.5V21.5C14.34 21.5 13 22.84 13 24.5C13 26.16 14.34 27.5 16 27.5V31.5C16 32.6 16.9 33.5 18 33.5H30C31.1 33.5 32 32.6 32 31.5V27.5C33.66 27.5 35 26.16 35 24.5C35 22.84 33.66 21.5 32 21.5ZM19.5 24C19.5 23.17 20.17 22.5 21 22.5C21.83 22.5 22.5 23.17 22.5 24C22.5 24.83 21.83 25.5 21 25.5C20.17 25.5 19.5 24.83 19.5 24ZM27 29.5H21C20.45 29.5 20 29.05 20 28.5C20 27.95 20.45 27.5 21 27.5H27C27.55 27.5 28 27.95 28 28.5C28 29.05 27.55 29.5 27 29.5ZM27 25.5C26.17 25.5 25.5 24.83 25.5 24C25.5 23.17 26.17 22.5 27 22.5C27.83 22.5 28.5 23.17 28.5 24C28.5 24.83 27.83 25.5 27 25.5Z" fill="#0BD65D"/>
<rect x="1" y="1" width="46" height="46" rx="23" stroke="#020202" stroke-width="2"/>
</svg>
