<svg width="19" height="19" viewBox="0 0 19 19" fill="none" xmlns="http://www.w3.org/2000/svg">
<path d="M2 1.87305H2.97962C3.16414 1.87305 3.25639 1.87305 3.33064 1.90698C3.39606 1.93688 3.45151 1.98497 3.49036 2.04551C3.53445 2.1142 3.5475 2.20554 3.57359 2.38819L3.92857 4.87305M3.92857 4.87305L4.71749 10.6716C4.8176 11.4074 4.86766 11.7754 5.04357 12.0523C5.19858 12.2963 5.42081 12.4904 5.68352 12.6111C5.98165 12.748 6.35296 12.748 7.09558 12.748H13.514C14.2209 12.748 14.5744 12.748 14.8632 12.6209C15.1179 12.5087 15.3364 12.3279 15.4942 12.0987C15.6732 11.8388 15.7393 11.4915 15.8716 10.7971L16.8643 5.58531C16.9109 5.3409 16.9342 5.2187 16.9004 5.12317C16.8708 5.03937 16.8124 4.96881 16.7357 4.92406C16.6481 4.87305 16.5237 4.87305 16.2749 4.87305H3.92857ZM8 16.123C8 16.5373 7.66421 16.873 7.25 16.873C6.83579 16.873 6.5 16.5373 6.5 16.123C6.5 15.7088 6.83579 15.373 7.25 15.373C7.66421 15.373 8 15.7088 8 16.123ZM14 16.123C14 16.5373 13.6642 16.873 13.25 16.873C12.8358 16.873 12.5 16.5373 12.5 16.123C12.5 15.7088 12.8358 15.373 13.25 15.373C13.6642 15.373 14 15.7088 14 16.123Z" stroke="white" stroke-width="1.6" stroke-linecap="round" stroke-linejoin="round"/>
</svg>
