<svg width="247" height="200" viewBox="0 0 247 200" fill="none" xmlns="http://www.w3.org/2000/svg">
<g clip-path="url(#clip0_219_1970)">
<g clip-path="url(#clip1_219_1970)">
<path d="M29.3333 46.3333V45C29.3333 44.2667 28.7333 43.6667 28 43.6667H26C26 42.56 25.1067 41.6667 24 41.6667C22.8933 41.6667 22 42.56 22 43.6667H20C19.2667 43.6667 18.6667 44.2667 18.6667 45V46.3333C17.56 46.3333 16.6667 47.2267 16.6667 48.3333C16.6667 49.44 17.56 50.3333 18.6667 50.3333V53C18.6667 53.7333 19.2667 54.3333 20 54.3333H28C28.7333 54.3333 29.3333 53.7333 29.3333 53V50.3333C30.44 50.3333 31.3333 49.44 31.3333 48.3333C31.3333 47.2267 30.44 46.3333 29.3333 46.3333ZM21 48C21 47.4467 21.4467 47 22 47C22.5533 47 23 47.4467 23 48C23 48.5533 22.5533 49 22 49C21.4467 49 21 48.5533 21 48ZM26 51.6667H22C21.6333 51.6667 21.3333 51.3667 21.3333 51C21.3333 50.6333 21.6333 50.3333 22 50.3333H26C26.3667 50.3333 26.6667 50.6333 26.6667 51C26.6667 51.3667 26.3667 51.6667 26 51.6667ZM26 49C25.4467 49 25 48.5533 25 48C25 47.4467 25.4467 47 26 47C26.5533 47 27 47.4467 27 48C27 48.5533 26.5533 49 26 49Z" fill="#0BD65D"/>
<rect x="9" y="33" width="30" height="30" rx="15" stroke="#333647" stroke-width="2"/>
<path d="M166.93 182.668L163.33 184.348L161 182.018V180.618L163.33 178.288L166.93 179.968C167.31 180.148 167.75 179.978 167.93 179.608C168.11 179.228 167.94 178.788 167.57 178.608L163.65 176.778C163.27 176.598 162.82 176.678 162.52 176.978L160.78 178.718C160.6 178.478 160.32 178.318 160 178.318C159.45 178.318 159 178.768 159 179.318V180.318H155.82C155.34 178.978 153.96 178.068 152.4 178.378C151.23 178.608 150.27 179.568 150.05 180.738C149.8 182.078 150.45 183.278 151.48 183.898L154.08 192.318H152.5C151.67 192.318 151 192.988 151 193.818C151 194.648 151.67 195.318 152.5 195.318H162.5C163.33 195.318 164 194.648 164 193.818C164 192.988 163.33 192.318 162.5 192.318H160.38L155.41 183.088C155.58 182.848 155.72 182.598 155.82 182.318H159V183.318C159 183.868 159.45 184.318 160 184.318C160.32 184.318 160.6 184.158 160.78 183.918L162.52 185.658C162.82 185.958 163.27 186.038 163.65 185.858L167.57 184.028C167.95 183.848 168.11 183.408 167.93 183.028C167.75 182.658 167.31 182.488 166.93 182.668ZM153 182.318C152.45 182.318 152 181.868 152 181.318C152 180.768 152.45 180.318 153 180.318C153.55 180.318 154 180.768 154 181.318C154 181.868 153.55 182.318 153 182.318Z" fill="#0BD65D"/>
<rect x="136" y="163" width="46" height="46" rx="23" stroke="#333647" stroke-width="2"/>
<path d="M199.999 28.5715C199.209 28.5715 198.569 29.2115 198.569 30.0015C198.569 30.7915 199.209 31.4315 199.999 31.4315C200.789 31.4315 201.429 30.7915 201.429 30.0015C201.429 29.2115 200.789 28.5715 199.999 28.5715Z" fill="#0BD65D"/>
<path d="M200.209 23.0015C196.369 22.8915 193.209 25.8715 193.019 29.6415L191.099 32.2015C190.849 32.5315 191.089 33.0015 191.499 33.0015H192.999V36.0015C192.999 37.1015 193.899 38.0015 194.999 38.0015H195.999V40.0015C195.999 40.5515 196.449 41.0015 196.999 41.0015H201.999C202.549 41.0015 202.999 40.5515 202.999 40.0015V36.3215C205.439 35.1615 207.099 32.6415 206.999 29.7415C206.859 26.1215 203.819 23.1115 200.209 23.0015ZM202.999 30.0015C202.999 30.1315 202.989 30.2615 202.979 30.3915L203.809 31.0515C203.889 31.1115 203.909 31.2115 203.859 31.3015L203.059 32.6915C203.009 32.7815 202.899 32.8115 202.819 32.7815L201.829 32.3815C201.619 32.5415 201.399 32.6715 201.159 32.7715L200.999 33.8315C200.989 33.9315 200.899 34.0015 200.799 34.0015H199.199C199.099 34.0015 199.019 33.9315 198.999 33.8315L198.849 32.7715C198.599 32.6715 198.379 32.5415 198.169 32.3815L197.179 32.7815C197.089 32.8115 196.979 32.7815 196.929 32.6915L196.129 31.3015C196.079 31.2215 196.099 31.1115 196.179 31.0515L197.019 30.3915C197.009 30.2615 196.999 30.1315 196.999 30.0015C196.999 29.8715 197.019 29.7315 197.039 29.6115L196.189 28.9515C196.109 28.8915 196.089 28.7915 196.139 28.6915L196.939 27.3115C196.989 27.2215 197.089 27.1915 197.179 27.2215L198.179 27.6215C198.379 27.4715 198.609 27.3315 198.849 27.2315L198.999 26.1715C199.019 26.0715 199.099 26.0015 199.199 26.0015H200.799C200.899 26.0015 200.979 26.0715 200.999 26.1715L201.149 27.2315C201.389 27.3315 201.609 27.4615 201.819 27.6215L202.819 27.2215C202.909 27.1915 203.019 27.2215 203.059 27.3115L203.859 28.6915C203.909 28.7815 203.889 28.8915 203.809 28.9515L202.959 29.6115C202.989 29.7315 202.999 29.8615 202.999 30.0015Z" fill="#0BD65D"/>
<rect x="176" y="9" width="46" height="46" rx="23" stroke="#333647" stroke-width="2"/>
</g>
</g>
<defs>
<clipPath id="clip0_219_1970">
<rect width="247" height="200" fill="white"/>
</clipPath>
<clipPath id="clip1_219_1970">
<rect width="247" height="200" fill="white"/>
</clipPath>
</defs>
</svg>
